<?xml version="1.0" encoding="UTF-8"?>
<svg width="364px" height="244px" viewBox="0 0 364 244" version="1.1" xmlns="http://www.w3.org/2000/svg" xmlns:xlink="http://www.w3.org/1999/xlink">
    <!-- Generator: Sketch 51.3 (57544) - http://www.bohemiancoding.com/sketch -->
    <title>Graph</title>
    <desc>Created with Sketch.</desc>
    <defs></defs>
    <g id="Page-1" stroke="none" stroke-width="1" fill="none" fill-rule="evenodd">
        <g id="Artboard" transform="translate(-525.000000, -120.000000)">
            <g id="Graph" transform="translate(525.000000, 120.000000)">
                <rect id="Rectangle-5" fill="#FFFFFF" fill-rule="nonzero" x="0" y="0" width="364" height="244" rx="8"></rect>
                <g id="Group-2" transform="translate(7.000000, 38.000000)">
                    <polygon id="Fill-234" fill="#C3FF7E" points="0 19 218 19 218 15 0 15"></polygon>
                    <path d="M217.500789,23 C220.538208,23 223,20.5382079 223,17.5007885 C223,14.4633692 220.538208,12 217.500789,12 C214.463369,12 212,14.4633692 212,17.5007885 C212,20.5382079 214.463369,23 217.500789,23" id="Fill-235" fill="#FFFFFE"></path>
                    <path d="M217.5,12.5250569 C214.755885,12.5250569 212.525057,14.7558846 212.525057,17.5 C212.525057,20.2424703 214.755885,22.4732979 217.5,22.4732979 C220.24247,22.4732979 222.473298,20.2424703 222.473298,17.5 C222.473298,14.7558846 220.24247,12.5250569 217.5,12.5250569 C214.755885,12.5250569 220.24247,12.5250569 217.5,12.5250569 Z M217.5,24 C213.915211,24 211,21.0831435 211,17.5 C211,13.9152113 213.915211,11 217.5,11 C221.083144,11 224,13.9152113 224,17.5 C224,21.0831435 221.083144,24 217.5,24 C213.915211,24 221.083144,24 217.5,24 Z" id="Fill-236" fill="#C3FF7E"></path>
                    <polygon id="Fill-237" fill="#6ABB85" points="0 34 170 34 170 30 0 30"></polygon>
                    <path d="M170.5,38 C173.537855,38 176,35.5366308 176,32.4992115 C176,29.4617921 173.537855,27 170.5,27 C167.462145,27 165,29.4617921 165,32.4992115 C165,35.5366308 167.462145,38 170.5,38" id="Fill-238" fill="#FFFFFE"></path>
                    <path d="M170.5,27.5267021 C167.755885,27.5267021 165.525057,29.7575297 165.525057,32.5 C165.525057,35.2441154 167.755885,37.4749431 170.5,37.4749431 C173.244115,37.4749431 175.474943,35.2441154 175.474943,32.5 C175.474943,29.7575297 173.244115,27.5267021 170.5,27.5267021 C167.755885,27.5267021 173.244115,27.5267021 170.5,27.5267021 Z M170.5,39 C166.916856,39 164,36.0847887 164,32.5 C164,28.9168565 166.916856,26 170.5,26 C174.083144,26 177,28.9168565 177,32.5 C177,36.0847887 174.083144,39 170.5,39 C166.916856,39 174.083144,39 170.5,39 Z" id="Fill-239" fill="#6ABB85"></path>
                    <polygon id="Fill-240" fill="#C3FF7E" points="0 49 117 49 117 45 0 45"></polygon>
                    <path d="M116.499211,53 C119.536631,53 122,50.5366308 122,47.5007885 C122,44.4633692 119.536631,42 116.499211,42 C113.463369,42 111,44.4633692 111,47.5007885 C111,50.5366308 113.463369,53 116.499211,53" id="Fill-241" fill="#FFFFFE"></path>
                    <path d="M116.499178,42.5250569 C113.757054,42.5250569 111.526509,44.7558846 111.526509,47.5 C111.526509,50.2424703 113.757054,52.4732979 116.499178,52.4732979 C119.242946,52.4732979 121.473491,50.2424703 121.473491,47.5 C121.473491,44.7558846 119.242946,42.5250569 116.499178,42.5250569 C113.757054,42.5250569 119.242946,42.5250569 116.499178,42.5250569 Z M116.499178,54 C112.916487,54 110,51.0831435 110,47.5 C110,43.9152113 112.916487,41 116.499178,41 C120.083513,41 123,43.9152113 123,47.5 C123,51.0831435 120.083513,54 116.499178,54 C112.916487,54 120.083513,54 116.499178,54 Z" id="Fill-242" fill="#C3FF7E"></path>
                    <polygon id="Fill-243" fill="#4A90E2" points="0 64 187 64 187 60 0 60"></polygon>
                    <path d="M186.5,68 C189.537855,68 192,65.5378549 192,62.5 C192,59.4621451 189.537855,57 186.5,57 C183.462145,57 181,59.4621451 181,62.5 C181,65.5378549 183.462145,68 186.5,68" id="Fill-244" fill="#FFFFFE"></path>
                    <path d="M186.5,57.5250569 C183.755885,57.5250569 181.525057,59.7558846 181.525057,62.5 C181.525057,65.2441154 183.755885,67.4749431 186.5,67.4749431 C189.244115,67.4749431 191.474943,65.2441154 191.474943,62.5 C191.474943,59.7558846 189.244115,57.5250569 186.5,57.5250569 C183.755885,57.5250569 189.244115,57.5250569 186.5,57.5250569 Z M186.5,69 C182.916856,69 180,66.0847887 180,62.5 C180,58.9168565 182.916856,56 186.5,56 C190.083144,56 193,58.9168565 193,62.5 C193,66.0847887 190.083144,69 186.5,69 C182.916856,69 190.083144,69 186.5,69 Z" id="Fill-245" fill="#4A90E2"></path>
                    <polygon id="Fill-246" fill="#C3FF7E" points="0 79 108 79 108 75 0 75"></polygon>
                    <path d="M107.500789,83 C110.536631,83 113,80.5366308 113,77.4992115 C113,74.4633692 110.536631,72 107.500789,72 C104.463369,72 102,74.4633692 102,77.4992115 C102,80.5366308 104.463369,83 107.500789,83" id="Fill-247" fill="#FFFFFE"></path>
                    <path d="M108.5,72.5265089 C105.755885,72.5265089 103.525057,74.7570543 103.525057,77.4991775 C103.525057,80.2429457 105.755885,82.4734911 108.5,82.4734911 C111.24247,82.4734911 113.473298,80.2429457 113.473298,77.4991775 C113.473298,74.7570543 111.24247,72.5265089 108.5,72.5265089 C105.755885,72.5265089 111.24247,72.5265089 108.5,72.5265089 Z M108.5,84 C104.915211,84 102,81.0835126 102,77.4991775 C102,73.9164874 104.915211,71 108.5,71 C112.083144,71 115,73.9164874 115,77.4991775 C115,81.0835126 112.083144,84 108.5,84 C104.915211,84 112.083144,84 108.5,84 Z" id="Fill-248" fill="#C3FF7E"></path>
                    <polygon id="Fill-249" fill="#6ABB85" points="0 94 244 94 244 90 0 90"></polygon>
                    <path d="M244.499211,98 C247.536631,98 250,95.5378549 250,92.5 C250,89.4621451 247.536631,87 244.499211,87 C241.463369,87 239,89.4621451 239,92.5 C239,95.5378549 241.463369,98 244.499211,98" id="Fill-250" fill="#FFFFFE"></path>
                    <path d="M244.499178,87.5250569 C241.757054,87.5250569 239.526509,89.7558846 239.526509,92.5 C239.526509,95.2424703 241.757054,97.4732979 244.499178,97.4732979 C247.242946,97.4732979 249.473491,95.2424703 249.473491,92.5 C249.473491,89.7558846 247.242946,87.5250569 244.499178,87.5250569 C241.757054,87.5250569 247.242946,87.5250569 244.499178,87.5250569 Z M244.499178,99 C240.916487,99 238,96.0831435 238,92.5 C238,88.9152113 240.916487,86 244.499178,86 C248.083513,86 251,88.9152113 251,92.5 C251,96.0831435 248.083513,99 244.499178,99 C240.916487,99 248.083513,99 244.499178,99 Z" id="Fill-251" fill="#6ABB85"></path>
                    <polygon id="Fill-252" fill="#C3FF7E" points="0 109 174 109 174 105 0 105"></polygon>
                    <path d="M174.500789,113 C177.536631,113 180,110.536631 180,107.499211 C180,104.463369 177.536631,102 174.500789,102 C171.463369,102 169,104.463369 169,107.499211 C169,110.536631 171.463369,113 174.500789,113" id="Fill-253" fill="#FFFFFE"></path>
                    <path d="M174.500822,102.526702 C171.757054,102.526702 169.526509,104.75753 169.526509,107.5 C169.526509,110.244115 171.757054,112.474943 174.500822,112.474943 C177.242946,112.474943 179.473491,110.244115 179.473491,107.5 C179.473491,104.75753 177.242946,102.526702 174.500822,102.526702 C171.757054,102.526702 177.242946,102.526702 174.500822,102.526702 Z M174.500822,114 C170.916487,114 168,111.084789 168,107.5 C168,103.916856 170.916487,101 174.500822,101 C178.083513,101 181,103.916856 181,107.5 C181,111.084789 178.083513,114 174.500822,114 C170.916487,114 178.083513,114 174.500822,114 Z" id="Fill-254" fill="#C3FF7E"></path>
                    <polygon id="Fill-255" fill="#4A90E2" points="0 124 273 124 273 120 0 120"></polygon>
                    <path d="M273.499211,128 C276.536631,128 279,125.536631 279,122.500789 C279,119.463369 276.536631,117 273.499211,117 C270.463369,117 268,119.463369 268,122.500789 C268,125.536631 270.463369,128 273.499211,128" id="Fill-256" fill="#FFFFFE"></path>
                    <path d="M273.499178,117.525057 C270.757054,117.525057 268.526509,119.755885 268.526509,122.5 C268.526509,125.24247 270.757054,127.473298 273.499178,127.473298 C276.242946,127.473298 278.473491,125.24247 278.473491,122.5 C278.473491,119.755885 276.242946,117.525057 273.499178,117.525057 C270.757054,117.525057 276.242946,117.525057 273.499178,117.525057 Z M273.499178,129 C269.916487,129 267,126.083144 267,122.5 C267,118.915211 269.916487,116 273.499178,116 C277.083513,116 280,118.915211 280,122.5 C280,126.083144 277.083513,129 273.499178,129 C269.916487,129 277.083513,129 273.499178,129 Z" id="Fill-257" fill="#4A90E2"></path>
                    <polygon id="Fill-258" fill="#C3FF7E" points="0 139 218 139 218 135 0 135"></polygon>
                    <path d="M217.500789,143 C220.538208,143 223,140.537855 223,137.5 C223,134.462145 220.538208,132 217.500789,132 C214.463369,132 212,134.462145 212,137.5 C212,140.537855 214.463369,143 217.500789,143" id="Fill-259" fill="#FFFFFE"></path>
                    <path d="M217.5,132.526702 C214.755885,132.526702 212.525057,134.75753 212.525057,137.5 C212.525057,140.244115 214.755885,142.474943 217.5,142.474943 C220.24247,142.474943 222.473298,140.244115 222.473298,137.5 C222.473298,134.75753 220.24247,132.526702 217.5,132.526702 C214.755885,132.526702 220.24247,132.526702 217.5,132.526702 Z M217.5,144 C213.915211,144 211,141.084789 211,137.5 C211,133.916856 213.915211,131 217.5,131 C221.083144,131 224,133.916856 224,137.5 C224,141.084789 221.083144,144 217.5,144 C213.915211,144 221.083144,144 217.5,144 Z" id="Fill-260" fill="#C3FF7E"></path>
                    <polygon id="Fill-261" fill="#6ABB85" points="0 154 174 154 174 150 0 150"></polygon>
                    <path d="M174.500789,158 C177.536631,158 180,155.536631 180,152.500789 C180,149.463369 177.536631,147 174.500789,147 C171.463369,147 169,149.463369 169,152.500789 C169,155.536631 171.463369,158 174.500789,158" id="Fill-262" fill="#FFFFFE"></path>
                    <path d="M174.500822,147.526509 C171.757054,147.526509 169.526509,149.757054 169.526509,152.500822 C169.526509,155.242946 171.757054,157.473491 174.500822,157.473491 C177.242946,157.473491 179.473491,155.242946 179.473491,152.500822 C179.473491,149.757054 177.242946,147.526509 174.500822,147.526509 C171.757054,147.526509 177.242946,147.526509 174.500822,147.526509 Z M174.500822,159 C170.916487,159 168,156.083513 168,152.500822 C168,148.916487 170.916487,146 174.500822,146 C178.083513,146 181,148.916487 181,152.500822 C181,156.083513 178.083513,159 174.500822,159 C170.916487,159 178.083513,159 174.500822,159 Z" id="Fill-263" fill="#6ABB85"></path>
                    <polygon id="Fill-264" fill="#C3FF7E" points="0 169 92 169 92 165 0 165"></polygon>
                    <path d="M91.5007885,173 C94.5382079,173 97,170.537855 97,167.5 C97,164.462145 94.5382079,162 91.5007885,162 C88.4633692,162 86,164.462145 86,167.5 C86,170.537855 88.4633692,173 91.5007885,173" id="Fill-265" fill="#FFFFFE"></path>
                    <path d="M91.5,162.525057 C88.7558846,162.525057 86.5250569,164.755885 86.5250569,167.5 C86.5250569,170.244115 88.7558846,172.474943 91.5,172.474943 C94.2424703,172.474943 96.4732979,170.244115 96.4732979,167.5 C96.4732979,164.755885 94.2424703,162.525057 91.5,162.525057 C88.7558846,162.525057 94.2424703,162.525057 91.5,162.525057 Z M91.5,174 C87.9152113,174 85,171.083144 85,167.5 C85,163.916856 87.9152113,161 91.5,161 C95.0831435,161 98,163.916856 98,167.5 C98,171.083144 95.0831435,174 91.5,174 C87.9152113,174 95.0831435,174 91.5,174 Z" id="Fill-266" fill="#C3FF7E"></path>
                    <polygon id="Fill-267" fill="#4A90E2" points="0 184 163 184 163 180 0 180"></polygon>
                    <path d="M162.499211,188 C165.536631,188 168,185.536631 168,182.499211 C168,179.463369 165.536631,177 162.499211,177 C159.463369,177 157,179.463369 157,182.499211 C157,185.536631 159.463369,188 162.499211,188" id="Fill-268" fill="#FFFFFE"></path>
                    <path d="M163.499178,177.526702 C160.757054,177.526702 158.526509,179.75753 158.526509,182.5 C158.526509,185.244115 160.757054,187.474943 163.499178,187.474943 C166.242946,187.474943 168.473491,185.244115 168.473491,182.5 C168.473491,179.75753 166.242946,177.526702 163.499178,177.526702 C160.757054,177.526702 166.242946,177.526702 163.499178,177.526702 Z M163.499178,189 C159.916487,189 157,186.084789 157,182.5 C157,178.916856 159.916487,176 163.499178,176 C167.083513,176 170,178.916856 170,182.5 C170,186.084789 167.083513,189 163.499178,189 C159.916487,189 167.083513,189 163.499178,189 Z" id="Fill-269" fill="#4A90E2"></path>
                    <text id="10" font-family="LucidaGrande, Lucida Grande" font-size="8.9296" font-weight="normal" fill="#C7C6C1">
                        <tspan x="323" y="190">10</tspan>
                    </text>
                    <text id="20" font-family="LucidaGrande, Lucida Grande" font-size="8.9296" font-weight="normal" letter-spacing="-0.0001" fill="#C7C6C1">
                        <tspan x="322" y="160">20</tspan>
                    </text>
                    <text id="30" font-family="LucidaGrande, Lucida Grande" font-size="8.9296" font-weight="normal" fill="#C7C6C1">
                        <tspan x="322" y="130">30</tspan>
                    </text>
                    <text id="40" font-family="LucidaGrande, Lucida Grande" font-size="8.9296" font-weight="normal" fill="#C7C6C1">
                        <tspan x="321" y="100">40</tspan>
                    </text>
                    <text id="50" font-family="LucidaGrande, Lucida Grande" font-size="8.9296" font-weight="normal" fill="#C7C6C1">
                        <tspan x="321" y="70">50</tspan>
                    </text>
                    <text id="60" font-family="LucidaGrande, Lucida Grande" font-size="8.9296" font-weight="normal" fill="#C7C6C1">
                        <tspan x="321" y="39">60</tspan>
                    </text>
                    <text id="70" font-family="LucidaGrande, Lucida Grande" font-size="8.9296" font-weight="normal" fill="#C7C6C1">
                        <tspan x="322" y="9">70</tspan>
                    </text>
                </g>
                <text id="Profile-Subject-Matc" font-family="HelveticaNeue-Thin, Helvetica Neue" font-size="18" font-weight="300" fill="#9B9B9B">
                    <tspan x="22" y="22">Profile Subject Match</tspan>
                </text>
                <path d="M0.5,32.2083333 L362.5,32.2083333" id="Line-3" stroke="#F8F8F8" stroke-linecap="square" fill-rule="nonzero"></path>
            </g>
        </g>
    </g>
</svg>