<?xml version="1.0" encoding="UTF-8"?>
<svg width="25px" height="29px" viewBox="0 0 25 29" version="1.1" xmlns="http://www.w3.org/2000/svg" xmlns:xlink="http://www.w3.org/1999/xlink">
    <!-- Generator: Sketch 51.3 (57544) - http://www.bohemiancoding.com/sketch -->
    <title>home</title>
    <desc>Created with Sketch.</desc>
    <defs></defs>
    <g id="Page-1" stroke="none" stroke-width="1" fill="none" fill-rule="evenodd">
        <g id="Artboard" transform="translate(-25.000000, -112.000000)" fill="#24D89B" fill-rule="nonzero">
            <g id="home" transform="translate(25.000000, 112.000000)">
                <path d="M24.291681,14.383053 C23.9005709,14.383053 23.5833621,14.6975255 23.5833621,15.0852619 L23.5833621,27.5956992 L15.9826273,27.5956992 L15.9826273,19.7424286 C15.9826273,19.3546922 15.6654185,19.0402196 15.2743083,19.0402196 L9.72580973,19.0402196 C9.3346996,19.0402196 9.01749076,19.3546922 9.01749076,19.7424286 L9.01749076,25.9695003 C9.01749076,26.3572367 9.3346996,26.6717093 9.72580973,26.6717093 C10.1169199,26.6717093 10.4341287,26.3572367 10.4341287,25.9695003 L10.4341287,20.4446375 L14.5659894,20.4446375 L14.5659894,27.5956992 L1.41663794,27.5956992 L1.41663794,10.4078482 L12.499941,1.60226523 L23.8486275,10.6186279 C24.153913,10.8612411 24.5996817,10.8123205 24.8442879,10.5097855 C25.088894,10.2071335 25.0397839,9.76532702 24.7344984,9.52271384 L12.9428764,0.154310413 C12.6841039,-0.0514368042 12.315778,-0.0514368042 12.0570055,0.154310413 L0.265383508,9.52271384 C0.0976299647,9.6560165 0,9.85743343 0,10.0706709 L0,28.2977911 C0,28.6855274 0.317090792,29 0.70831897,29 L24.291681,29 C24.6829092,29 25,28.6855274 25,28.2977911 L25,15.0852619 C25,14.6974085 24.6829092,14.383053 24.291681,14.383053 Z" id="Shape"></path>
            </g>
        </g>
    </g>
</svg>