<?xml version="1.0" encoding="UTF-8"?>
<svg width="109px" height="38px" viewBox="0 0 109 38" version="1.1" xmlns="http://www.w3.org/2000/svg" xmlns:xlink="http://www.w3.org/1999/xlink">
    <!-- Generator: Sketch 51.3 (57544) - http://www.bohemiancoding.com/sketch -->
    <title>Logo</title>
    <desc>Created with Sketch.</desc>
    <defs></defs>
    <g id="Page-1" stroke="none" stroke-width="1" fill="none" fill-rule="evenodd">
        <g id="Artboard" transform="translate(-119.000000, -11.000000)">
            <g id="Logo" transform="translate(119.000000, 10.000000)">
                <g id="literature" transform="translate(0.000000, 1.000000)" fill="#24D89B" fill-rule="nonzero">
                    <g id="chat">
                        <path d="M33.2773446,5.56744186 C29.5914268,1.97632135 24.7016073,0 19.4901978,0 C14.2787883,0 9.38896885,1.97632135 5.70305103,5.56744186 C-1.4214076,12.5086681 -1.91616167,23.6194503 4.47441175,31.1150106 C3.84772326,32.344186 2.84172331,33.7742072 1.3492152,34.4892178 C0.631821798,34.8346723 0.22777264,35.5818182 0.351461158,36.3530655 C0.475149675,37.1243129 1.08534636,37.7268499 1.87695288,37.8473573 C2.24801843,37.9035941 2.77575611,37.9598309 3.4189364,37.9598309 C5.14232974,37.9598309 7.68206731,37.5661734 10.2795262,35.7424947 C13.1738375,37.2608879 16.3402636,38 19.4819519,38 C24.5284434,38 29.5254595,36.0959831 33.2855905,32.4325581 C36.9715083,28.8414376 39,24.0773784 39,19 C39,13.9226216 36.9632624,9.15856237 33.2773446,5.56744186 Z M31.7023775,30.8980973 C26.1363942,36.3209302 17.5194274,37.397463 10.7412966,33.5171247 C10.296018,33.2600423 9.7435426,33.3403805 9.38896885,33.6858351 C9.35598525,33.7019027 9.32300164,33.7260042 9.29826394,33.7501057 C7.06362472,35.4372093 4.87021501,35.7906977 3.4189364,35.7906977 L3.4106905,35.7906977 C5.08460844,34.6016913 6.14008379,32.8342495 6.75852638,31.4604651 C6.85747719,31.2274841 6.87396899,30.9864693 6.81624768,30.7615222 C6.79150998,30.5446089 6.70080507,30.3276956 6.54413295,30.1509514 C0.50813328,23.5069767 0.821477525,13.3843552 7.26977225,7.10190275 C14.0066735,0.538266385 24.9654762,0.538266385 31.6941316,7.10190275 C38.4392787,13.6655391 38.4392787,24.3344609 31.7023775,30.8980973 Z" id="Shape"></path>
                        <circle id="Oval" cx="21" cy="20" r="2"></circle>
                        <circle id="Oval" cx="27" cy="20" r="2"></circle>
                        <circle id="Oval" cx="14" cy="20" r="2"></circle>
                    </g>
                </g>
                <text id="Chat" font-family="HelveticaNeue-Thin, Helvetica Neue" font-size="30" font-weight="300" fill="#9B9B9B">
                    <tspan x="49.77" y="29">Chat</tspan>
                </text>
            </g>
        </g>
    </g>
</svg>