<?xml version="1.0" encoding="UTF-8"?>
<svg width="305px" height="79px" viewBox="0 0 305 79" version="1.1" xmlns="http://www.w3.org/2000/svg" xmlns:xlink="http://www.w3.org/1999/xlink">
    <!-- Generator: Sketch 51.3 (57544) - http://www.bohemiancoding.com/sketch -->
    <title>Logo</title>
    <desc>Created with Sketch.</desc>
    <defs></defs>
    <g id="Page-1" stroke="none" stroke-width="1" fill="none" fill-rule="evenodd">
        <g id="Artboard" transform="translate(-82.000000, -32.000000)">
            <g id="Logo" transform="translate(82.000000, 32.000000)">
                <g id="literature" fill-rule="nonzero">
                    <path d="M17.7298413,59.25 C15.7710074,59.25 14.1772152,60.8144371 14.1772152,62.7349964 C14.1772152,64.6561513 15.7710074,66.2205882 17.7298413,66.2205882 L71.8987342,66.2205882 C71.3933854,65.1468617 71.1164154,63.9623678 71.1164154,62.7349964 C71.1164154,61.5082205 71.3933854,60.3237267 71.8987342,59.25 L17.7298413,59.25 Z" id="Shape" fill="#9B9B9B"></path>
                    <path d="M80,45.3519858 L53.6877441,45.3519858 C54.5123291,44.5868746 55.3076172,43.7518241 56.0668945,42.8534664 C61.9171142,35.9445538 63.6309814,26.9368608 60.5389405,19.3430258 C58.5546875,14.4683808 54.3249512,11.4435083 49.2248534,11.253587 C47.8204345,11.2011325 46.3470459,11.3277467 44.5892334,11.653326 C44.1778564,11.7286915 43.7829591,11.8275712 43.3984375,11.9312742 C43.4814453,9.73964336 44.2529297,6.37773598 47.6702881,3.55001984 L44.6606445,0 C39.7686767,4.04562391 38.762207,8.92931274 38.7127686,12.0886375 C38.1518555,11.9294654 37.5720216,11.7660729 36.9561767,11.653326 C35.1983642,11.3277467 33.7249756,11.2011325 32.3205566,11.253587 C27.2204591,11.4435083 22.9907227,14.4683808 21.0046387,19.3430258 C17.9138184,26.9368608 19.6282959,35.9445538 25.4779053,42.8534664 C26.237793,43.7518241 27.0330811,44.5868746 27.8576659,45.3519858 L17.03125,45.3519858 C7.64038094,45.3519858 0,52.8999985 0,62.1759929 C0,71.4525904 7.64038094,79 17.03125,79 L80,79 L80,70.335371 L17.5811767,70.335371 C13.0279541,70.335371 9.32373047,66.675619 9.32373047,62.1759929 C9.32373047,57.6769699 13.0279541,54.0172177 17.5811767,54.0172177 L80,54.0172177 L80,45.3519858 Z M49.0185547,29.2490765 C49.7705078,25.7189532 46.3983155,23.6726273 46.3641358,23.650922 L48.7768555,19.6824724 C49.0325928,19.8338065 55.0360108,23.482706 53.605957,30.1998885 L49.0185547,29.2490765 Z" id="Shape" fill="#24D89B"></path>
                </g>
                <text id="StudieMe" font-family="HelveticaNeue, Helvetica Neue" font-size="48" font-weight="normal" fill="#9B9B9B">
                    <tspan x="101.304" y="58">StudieMe</tspan>
                </text>
            </g>
        </g>
    </g>
</svg>