<?xml version="1.0" encoding="UTF-8"?>
<svg width="33px" height="33px" viewBox="0 0 33 33" version="1.1" xmlns="http://www.w3.org/2000/svg" xmlns:xlink="http://www.w3.org/1999/xlink">
    <!-- Generator: Sketch 51.3 (57544) - http://www.bohemiancoding.com/sketch -->
    <title>man</title>
    <desc>Created with Sketch.</desc>
    <defs></defs>
    <g id="Page-1" stroke="none" stroke-width="1" fill="none" fill-rule="evenodd">
        <g id="Artboard" transform="translate(-20.000000, -364.000000)" fill="#C3C2C3" fill-rule="nonzero">
            <g id="man" transform="translate(20.000000, 364.000000)">
                <path d="M16.5,33 C7.402,33 0,25.598 0,16.5 C0,7.402 7.402,0 16.5,0 C25.598,0 33,7.402 33,16.5 C33,25.598 25.598,33 16.5,33 Z M16.5,1 C7.953,1 1,7.953 1,16.5 C1,25.047 7.953,32 16.5,32 C25.047,32 32,25.047 32,16.5 C32,7.953 25.047,1 16.5,1 Z" id="Shape"></path>
                <path d="M16.5,33 C13.065,33 9.764,31.942 6.951,29.94 C6.801,29.833 6.721,29.65 6.745,29.467 C6.769,29.284 6.893,29.128 7.067,29.064 C11.213,27.529 11.882,26.283 11.882,23.895 C11.882,23.264 11.74,23.057 11.484,22.681 C11.145,22.187 10.681,21.51 10.355,19.742 C10.307,19.488 10.266,19.468 10.039,19.358 C9.433,19.066 8.876,18.646 8.73,16.73 C8.73,15.802 9.05,15.289 9.315,15.022 C9.257,14.692 9.162,14.123 9.073,13.503 C8.62,10.726 8.6,7.325 12.506,5.744 C15.91,4.364 18.627,5.118 19.48,6.017 C20.084,6.036 21.642,6.194 22.726,7.455 C24.394,9.395 23.863,13.818 23.681,15.017 C23.947,15.278 24.27,15.784 24.27,16.692 C24.124,18.646 23.567,19.067 22.96,19.358 C22.732,19.468 22.691,19.487 22.644,19.742 C22.318,21.51 21.855,22.187 21.516,22.681 C21.259,23.056 21.118,23.264 21.118,23.895 C21.118,26.283 21.787,27.529 25.933,29.064 C26.107,29.128 26.231,29.283 26.255,29.467 C26.279,29.651 26.199,29.833 26.049,29.94 C23.236,31.942 19.935,33 16.5,33 Z M8.317,29.651 C10.779,31.191 13.589,32 16.5,32 C19.411,32 22.221,31.191 24.683,29.651 C21.209,28.225 20.118,26.787 20.118,23.896 C20.118,22.955 20.396,22.548 20.691,22.117 C20.995,21.673 21.373,21.121 21.662,19.561 C21.801,18.807 22.238,18.597 22.527,18.458 C22.838,18.309 23.158,18.155 23.271,16.655 C23.27,15.891 22.927,15.683 22.913,15.675 C22.729,15.569 22.61,15.346 22.649,15.138 C22.897,13.809 23.305,9.664 21.968,8.107 C21.055,7.045 19.616,7.016 19.342,7.027 C19.296,7.023 19.251,7.022 19.208,7.011 C19.078,6.978 18.858,6.865 18.791,6.749 C18.519,6.283 16.15,5.346 12.881,6.669 C9.65,7.977 9.643,10.781 10.062,13.351 C10.2,14.308 10.351,15.135 10.352,15.139 C10.393,15.364 10.276,15.588 10.069,15.683 C10.072,15.683 9.73,15.892 9.73,16.691 C9.842,18.152 10.163,18.307 10.473,18.456 C10.762,18.595 11.2,18.805 11.339,19.559 C11.627,21.119 12.005,21.671 12.309,22.115 C12.605,22.546 12.883,22.953 12.883,23.894 C12.883,26.788 11.792,28.226 8.317,29.651 Z" id="Shape"></path>
            </g>
        </g>
    </g>
</svg>