<?xml version="1.0" encoding="UTF-8"?>
<svg width="755px" height="866px" viewBox="0 0 755 866" version="1.1" xmlns="http://www.w3.org/2000/svg" xmlns:xlink="http://www.w3.org/1999/xlink">
    <!-- Generator: Sketch 51.3 (57544) - http://www.bohemiancoding.com/sketch -->
    <title>Mockup</title>
    <desc>Created with Sketch.</desc>
    <defs>
        <path d="M0.384533835,299.465547 C0.384533835,303.792179 2.79028571,305.964772 5.7602782,304.319093 L251.500586,168.093264 C254.474444,166.447585 256.880195,161.603315 256.880195,157.276683 L256.880195,5.47905971 C256.880195,1.15242761 254.470579,-1.02202043 251.500586,0.621802918 L5.7602782,136.851343 C2.79028571,138.495167 0.384533835,143.339436 0.384533835,147.667924 L0.384533835,299.465547" id="path-1"></path>
    </defs>
    <g id="Page-1" stroke="none" stroke-width="1" fill="none" fill-rule="evenodd">
        <g id="Artboard" transform="translate(-1053.000000, -171.000000)">
            <g id="Mockup" transform="translate(1053.000000, 171.000000)">
                <path d="M105.365873,551.942787 C-8.69983518,659.074177 6.78916251,774.827804 139.96402,810.483923 C273.14081,846.138189 473.566663,788.19468 587.634303,681.059585 C701.700011,573.926342 686.211013,458.172715 553.034223,422.516596 C419.861297,386.860477 219.435444,444.807691 105.365873,551.942787" id="Fill-4" fill="#FFF6E4"></path>
                <polyline id="Fill-5" fill="#B5D159" points="224 808.815913 224 816 146 773.19322 146 766 224 808.815913"></polyline>
                <polyline id="Fill-6" fill="#85BF43" points="230 808.391718 223.562874 812 146 767.634786 152.515511 764 230 808.391718"></polyline>
                <polyline id="Fill-7" fill="#E6DDBF" points="232 807 232 813.722041 225 817 225 810.264258 232 807"></polyline>
                <polyline id="Fill-8" fill="#E6DDBF" points="147 765.675281 147 772 137 761 147 765.675281"></polyline>
                <polyline id="Fill-9" fill="#FFF6E4" points="153 763.052903 137 761 146.57057 767 153 763.052903"></polyline>
                <polyline id="Fill-10" fill="#85BF43" points="137 761 139.324786 765 139.324786 762.743869 141 761.597275 137 761"></polyline>
                <polyline id="Fill-11" fill="#85BF43" points="673 596.368755 666.696624 592 586 637.458366 592.53137 641 673 596.368755"></polyline>
                <polyline id="Fill-12" fill="#128A54" points="673 603.983942 673 597 592 641.65316 592.071357 649 673 603.983942"></polyline>
                <polyline id="Fill-13" fill="#FFF6E4" points="592 641.013119 585.188288 638 579 647 592 641.013119"></polyline>
                <polyline id="Fill-14" fill="#E6DDBF" points="592 649 579 648.717386 591.926486 642 592 649"></polyline>
                <polyline id="Fill-15" fill="#128A54" points="579 647.776067 580.415638 646 582 646.582225 582 648 579 647.776067"></polyline>
                <polyline id="Fill-16" fill="#B5D159" points="544 702.816176 544 710 622 667.19113 622 660 544 702.816176"></polyline>
                <polyline id="Fill-17" fill="#85BF43" points="537 700.389967 543.437126 704 621 659.63275 614.484489 656 537 700.389967"></polyline>
                <polyline id="Fill-18" fill="#E6DDBF" points="537 700 537 706.720329 544 710 544 703.26597 537 700"></polyline>
                <polyline id="Fill-19" fill="#E6DDBF" points="622 659.676887 622 666 632 655 622 659.676887"></polyline>
                <polyline id="Fill-20" fill="#FFF6E4" points="616 657.056319 632 655 622.430189 661 616 657.056319"></polyline>
                <polyline id="Fill-21" fill="#85BF43" points="632 655 629.676923 659 629.676923 656.745098 628 655.601307 632 655"></polyline>
                <path d="M416.443614,247.595862 L426,252.867936 L418.94113,255.931714 L418.94113,450.091003 C418.94113,455.680404 415.826012,461.936004 411.980999,464.062648 L98.0761916,637.777574 L98.1981633,645 L89.5614056,640.219689 L89.5710859,640.214122 C88.0028784,639.22874 87,636.953639 87,633.784085 L87,437.674444 C87,432.085043 90.1151184,425.827587 93.9562588,423.700943 L411.980999,247.70906 C413.680859,246.77007 415.235514,246.79605 416.443614,247.595862" id="Fill-22" fill="#D0C9BA"></path>
                <path d="M428,257.969093 C428,252.390585 424.886302,249.586514 421.038716,251.709014 L102.959348,427.357936 C99.1175709,429.480436 96.0019364,435.723846 96,441.304206 L96.0019364,637.02983 C96.0019364,642.61019 99.1195073,645.412408 102.959348,643.29176 L421.038716,467.640987 C424.886302,465.520339 428,459.275077 428,453.696569 L428,257.969093" id="Fill-23" fill="#7CA69F"></path>
                <path d="M138.384773,607.538284 L131,603.459364 L136.455958,601.08695 L136.455958,450.834694 C136.455958,446.509073 138.860213,441.667791 141.832676,440.022497 L384.436292,305.588806 L384.343523,300 L391.01707,303.698665 L391.009339,303.702375 C392.219197,304.468448 393,306.226891 392.996135,308.679065 L393,460.441208 C393,464.766829 390.589947,469.611821 387.621349,471.25526 L141.832676,607.451103 C140.518453,608.178223 139.320191,608.157819 138.384773,607.538284" id="Fill-24" fill="#D0C9BA"></path>
                <path d="M130,599.592916 C130,603.922445 132.410482,606.096493 135.386314,604.449712 L381.609813,468.132657 C384.589518,466.485877 387,461.638363 387,457.308834 L387,305.409557 C387,301.080028 384.585646,298.904123 381.609813,300.549048 L135.386314,436.869816 C132.410482,438.51474 130,443.362253 130,447.693639 L130,599.592916" id="Fill-25" fill="#FFF6E4"></path>
                <g id="Group-54" transform="translate(129.000000, 300.000000)">
                    <mask id="mask-2" fill="white">
                        <use xlink:href="#path-1"></use>
                    </mask>
                    <g id="Clip-27"></g>
                    <polyline id="Fill-26" fill="#7CA69F" mask="url(#mask-2)" points="235.641947 27.6558322 32.1752406 140.446975 32.1752406 384.994455 235.641947 272.199602 235.641947 27.6558322"></polyline>
                    <polyline id="Fill-28" fill="#FFFFFE" mask="url(#mask-2)" points="229.727083 264.93598 38.2562857 371.079472 38.2562857 289.040442 229.727083 182.898806 229.727083 264.93598"></polyline>
                    <polyline id="Fill-29" fill="#7CA69F" mask="url(#mask-2)" points="223.804489 201.667335 43.918015 301.391381 43.918015 294.138892 223.804489 194.418556 223.804489 201.667335"></polyline>
                    <polyline id="Fill-30" fill="#128A54" mask="url(#mask-2)" points="229.727083 176.969168 38.2562857 283.112659 38.2562857 143.749464 229.72515 37.6078282 229.727083 176.969168"></polyline>
                    <path d="M141.537436,167.703644 L142.219549,166.566326 C141.999263,166.952235 141.77318,167.330723 141.537436,167.703644" id="Fill-31" fill="#309665" mask="url(#mask-2)"></path>
                    <polyline id="Fill-32" fill="#FFFFFE" mask="url(#mask-2)" points="132.063218 155.992794 132.063218 166.86689 139.008015 157.577247 132.063218 155.992794"></polyline>
                    <polyline id="Fill-33" fill="#D0C9BA" mask="url(#mask-2)" points="223.804489 167.842794 43.918015 267.563129 43.918015 265.260663 223.804489 165.536617 223.804489 167.842794"></polyline>
                    <polyline id="Fill-34" fill="#FFFFFE" mask="url(#mask-2)" points="127.557023 221.198405 43.918015 267.563129 43.918015 265.260663 127.557023 218.894084 127.557023 221.198405"></polyline>
                    <polyline id="Fill-35" fill="#62938A" mask="url(#mask-2)" points="94.8716466 239.317569 43.918015 267.563129 43.918015 265.260663 94.8716466 237.009537 94.8716466 239.317569"></polyline>
                    <polyline id="Fill-36" fill="#D0C9BA" mask="url(#mask-2)" points="221.230624 176.744673 218.144692 178.455288 218.144692 174.256674 221.230624 172.544203 221.230624 176.744673"></polyline>
                    <polyline id="Fill-37" fill="#D0C9BA" mask="url(#mask-2)" points="217.277075 178.939529 214.187278 180.650144 214.187278 176.449675 217.277075 174.735349 217.277075 178.939529"></polyline>
                    <polyline id="Fill-38" fill="#D0C9BA" mask="url(#mask-2)" points="213.319662 181.130675 210.231797 182.843146 210.231797 178.644532 213.319662 176.930206 213.319662 181.130675"></polyline>
                    <polyline id="Fill-39" fill="#D0C9BA" mask="url(#mask-2)" points="58.3312707 267.051058 55.2453383 268.763529 55.2453383 264.561204 58.3312707 262.848733 58.3312707 267.051058"></polyline>
                    <polyline id="Fill-40" fill="#D0C9BA" mask="url(#mask-2)" points="54.3757895 269.245915 51.2840602 270.952819 51.2859925 266.75606 54.3757895 265.04359 54.3757895 269.245915"></polyline>
                    <polyline id="Fill-41" fill="#D0C9BA" mask="url(#mask-2)" points="50.4145113 271.438916 47.3247143 273.151387 47.3247143 268.949062 50.4145113 267.236591 50.4145113 271.438916"></polyline>
                    <polyline id="Fill-42" fill="#D0C9BA" mask="url(#mask-2)" points="76.4719925 255.945046 60.646203 264.715196 60.646203 262.616817 76.4719925 253.844811 76.4719925 255.945046"></polyline>
                    <path d="M3.84920301,304.868271 C1.8241203,304.868271 0.384533835,302.810709 0.384533835,299.465547 L0.384533835,151.770061 L11.1553459,133.86055 L237.257376,8.51809203 L220.803579,35.8823703 L32.1752406,140.446975 L32.1752406,289.674965 L5.7602782,304.319093 C5.08589474,304.692015 4.44242857,304.868271 3.84920301,304.868271" id="Fill-43" fill="#FBF2DB" mask="url(#mask-2)"></path>
                    <polyline id="Fill-44" fill="#91B2A6" mask="url(#mask-2)" points="32.1752406 289.674965 32.1752406 140.446975 220.803579 35.8823703 214.786301 45.8900262 38.2562857 143.749464 38.2562857 283.112659 89.0823835 254.937601 86.2032105 259.726211 32.1752406 289.674965"></polyline>
                    <path d="M38.2562857,283.112659 L38.2562857,143.749464 L214.786301,45.8900262 L142.219549,166.566326 C144.519023,162.540258 145.956677,157.825861 145.958609,153.478821 C145.956677,147.282015 143.034992,143.576919 138.859226,143.576919 C137.427368,143.576919 135.846722,144.012921 134.184917,144.933166 C127.680692,148.536219 122.413158,158.20806 122.413158,166.531075 C122.413158,172.731591 125.33291,176.436688 129.510609,176.436688 C130.942466,176.436688 132.525045,176.000685 134.184917,175.080441 C136.967474,173.536805 139.523947,170.885537 141.537436,167.703644 L102.353632,232.864727 L94.8716466,237.013248 L94.8716466,237.009537 L43.918015,265.260663 L43.918015,267.563129 L100.276376,236.321209 L89.0823835,254.937601 L38.2562857,283.112659 M50.4145113,267.236591 L47.3247143,268.949062 L47.3247143,273.151387 L50.4145113,271.438916 L50.4145113,267.236591 M54.3757895,265.04359 L51.2859925,266.75606 L51.2840602,270.952819 L54.3757895,269.245915 L54.3757895,265.04359 M58.3312707,262.848733 L55.2453383,264.561204 L55.2453383,268.763529 L58.3312707,267.051058 L58.3312707,262.848733 M76.4719925,253.844811 L60.646203,262.616817 L60.646203,264.715196 L76.4719925,255.945046 L76.4719925,253.844811" id="Fill-45" fill="#339866" mask="url(#mask-2)"></path>
                    <path d="M129.510609,176.436688 C125.33291,176.436688 122.413158,172.731591 122.413158,166.531075 C122.413158,158.20806 127.680692,148.536219 134.184917,144.933166 C135.846722,144.012921 137.427368,143.576919 138.859226,143.576919 C143.034992,143.576919 145.956677,147.282015 145.958609,153.478821 C145.956677,157.825861 144.519023,162.540258 142.219549,166.566326 L141.537436,167.703644 C139.523947,170.885537 136.967474,173.536805 134.184917,175.080441 C132.525045,176.000685 130.942466,176.436688 129.510609,176.436688 M132.063218,155.992794 L132.063218,166.86689 L139.008015,157.577247 L132.063218,155.992794" id="Fill-46" fill="#51A375" mask="url(#mask-2)"></path>
                    <polyline id="Fill-47" fill="#FDFBF3" mask="url(#mask-2)" points="132.063218 166.86689 132.063218 155.992794 139.008015 157.577247 132.063218 166.86689"></polyline>
                    <path d="M43.918015,267.563129 L43.918015,265.260663 L43.918015,267.563129 M43.918015,267.563129 L94.8716466,239.317569 L94.8716466,237.013248 L102.353632,232.864727 L100.276376,236.321209 L43.918015,267.563129" id="Fill-48" fill="#FDFBF3" mask="url(#mask-2)"></path>
                    <polyline id="Fill-49" fill="#78A093" mask="url(#mask-2)" points="43.918015 267.563129 43.918015 265.260663 94.8716466 237.009537 94.8716466 239.317569 43.918015 267.563129"></polyline>
                    <polyline id="Fill-50" fill="#D4CEBB" mask="url(#mask-2)" points="55.2453383 268.763529 55.2453383 264.561204 58.3312707 262.848733 58.3312707 267.051058 55.2453383 268.763529"></polyline>
                    <polyline id="Fill-51" fill="#D4CEBB" mask="url(#mask-2)" points="51.2840602 270.952819 51.2859925 266.75606 54.3757895 265.04359 54.3757895 269.245915 51.2840602 270.952819"></polyline>
                    <polyline id="Fill-52" fill="#D4CEBB" mask="url(#mask-2)" points="47.3247143 273.151387 47.3247143 268.949062 50.4145113 267.236591 50.4145113 271.438916 47.3247143 273.151387"></polyline>
                    <polyline id="Fill-53" fill="#D4CEBB" mask="url(#mask-2)" points="60.646203 264.715196 60.646203 262.616817 76.4719925 253.844811 76.4719925 255.945046 60.646203 264.715196"></polyline>
                </g>
                <path d="M622.984577,589.651865 L623,579.004977 L616.730639,583.362477 L442.048361,485.528184 C437.020534,482.711706 429.839301,482.165616 426.012524,484.308832 L113.439011,659.373736 L107,655.631523 L107,665.264777 L107.009639,665.259167 C107.117599,667.069493 108.659877,669.053745 111.515019,670.652742 L287.949712,769.472615 C292.979466,772.289094 300.162627,772.833314 303.987476,770.691967 L620.665376,593.326752 C622.358027,592.380445 623.106032,591.067585 622.984577,589.651865" id="Fill-55" fill="#7CA69F"></path>
                <path d="M618.484412,573.347321 C623.514151,576.165671 624.489639,580.184673 620.664801,582.327891 L303.987881,759.693215 C300.163043,761.834563 292.979905,761.286602 287.950166,758.471992 L111.51602,659.653928 C106.486281,656.837448 105.508865,652.814706 109.337558,650.673358 L426.01255,473.308034 C429.839316,471.166686 437.020527,471.710906 442.048338,474.527387 L618.484412,573.347321" id="Fill-56" fill="#D0C9BA"></path>
                <path d="M199.573414,631.585151 C200.089364,631.886747 200.144086,632.343109 199.700447,632.603037 L187.382136,639.823485 C186.936543,640.085397 186.160663,640.051666 185.644713,639.75007 L171.424813,631.414511 C170.910817,631.114899 170.856095,630.660521 171.299734,630.396624 L183.62,623.174193 C184.063639,622.914265 184.839518,622.94998 185.355468,623.249592 L199.573414,631.585151" id="Fill-57" fill="#FFFFFE"></path>
                <path d="M245.566741,628.582478 C246.086526,628.886079 246.149057,629.340488 245.697664,629.602419 L233.383053,636.825345 C232.937523,637.087275 232.161753,637.049573 231.643922,636.745972 L217.422128,628.409842 C216.916021,628.112194 216.853491,627.657785 217.297067,627.395854 L229.615587,620.176897 C230.065025,619.914967 230.840795,619.9487 231.344947,620.246348 L245.566741,628.582478" id="Fill-58" fill="#FFFFFE"></path>
                <path d="M268.577012,636.587057 C269.091106,636.890726 269.141928,637.341266 268.70016,637.60127 L256.37561,644.825795 C255.939706,645.079844 255.15977,645.056027 254.645677,644.754343 L240.413313,636.410414 C239.910948,636.116669 239.860125,635.656205 240.296029,635.400171 L252.618625,628.175646 C253.062348,627.915643 253.844239,627.949383 254.348558,628.243128 L268.577012,636.587057" id="Fill-59" fill="#FFFFFE"></path>
                <path d="M280.578849,652.589798 C281.085127,652.887472 281.145724,653.343906 280.701997,653.603875 L268.381258,660.827434 C267.943396,661.085419 267.159544,661.049698 266.649357,660.750039 L252.424698,652.415162 C251.916465,652.111535 251.853914,651.655101 252.293731,651.397117 L264.616425,644.173557 C265.056242,643.913588 265.840093,643.951294 266.350281,644.248968 L280.578849,652.589798" id="Fill-60" fill="#FFFFFE"></path>
                <path d="M280.572329,674.791235 C281.088992,675.085496 281.14662,675.528824 280.695533,675.780495 L268.170424,682.829216 C267.71735,683.082823 266.928445,683.049912 266.40582,682.757587 L249.427471,673.205708 C248.914782,672.921127 248.851192,672.468119 249.302279,672.212576 L261.829376,665.169663 C262.278475,664.916056 263.079303,664.952839 263.590005,665.239356 L280.572329,674.791235" id="Fill-61" fill="#FFFFFE"></path>
                <path d="M298.565387,665.789509 C299.090068,666.083821 299.147703,666.529161 298.69457,666.784748 L286.173778,673.830804 C285.720645,674.082518 284.929649,674.049602 284.406956,673.757226 L267.42439,664.203711 C266.917597,663.917144 266.850024,663.465995 267.30117,663.212345 L279.821961,656.172097 C280.275095,655.914575 281.076028,655.9533 281.584809,656.239867 L298.565387,665.789509" id="Fill-62" fill="#FFFFFE"></path>
                <path d="M314.570463,656.789934 C315.093104,657.084219 315.142785,657.529518 314.697646,657.783145 L302.168177,664.828551 C301.719064,665.082178 300.930134,665.051201 300.407494,664.756916 L283.426636,655.204282 C282.919893,654.919678 282.848353,654.468571 283.299453,654.214944 L295.826935,647.169538 C296.276048,646.917847 297.078888,646.95076 297.589605,647.239237 L314.570463,656.789934" id="Fill-63" fill="#FFFFFE"></path>
                <path d="M457.572546,577.789146 C458.095191,578.083436 458.142885,578.532616 457.691781,578.786247 L445.168176,585.831784 C444.721046,586.081543 443.928136,586.050565 443.405491,585.756275 L426.426488,576.207337 C425.917754,575.918855 425.850188,575.469676 426.299305,575.21798 L438.824897,568.170508 C439.274013,567.916876 440.080834,567.951726 440.593543,568.238272 L457.572546,577.789146" id="Fill-64" fill="#FFFFFE"></path>
                <path d="M473.579562,566.887982 C474.087116,567.139636 474.143296,567.527183 473.703544,567.745283 L461.500933,573.848732 C461.05537,574.070188 460.280478,574.0467 459.772924,573.790013 L452.415324,570.114186 C451.913582,569.862532 451.855465,569.47163 452.301028,569.246819 L464.503639,563.146725 C464.94339,562.926947 465.72022,562.958824 466.225837,563.210478 L473.579562,566.887982" id="Fill-65" fill="#FFFFFE"></path>
                <path d="M506.580025,549.88696 C507.089501,550.141966 507.141805,550.526152 506.702067,550.747604 L494.49788,556.852639 C494.056204,557.069059 493.279398,557.045571 492.769922,556.792243 L485.418352,553.111439 C484.91275,552.861466 484.856572,552.468892 485.298247,552.252473 L497.502434,546.147437 C497.942172,545.927663 498.720916,545.957861 499.224581,546.209511 L506.580025,549.88696" id="Fill-66" fill="#FFFFFE"></path>
                <path d="M334.584437,644.54181 C335.085722,644.824784 335.139091,645.260564 334.714047,645.502036 L318.385115,654.83452 C317.954353,655.079764 317.197661,655.04958 316.698282,654.762833 L300.409377,645.454873 C299.921434,645.177559 299.856629,644.738006 300.285485,644.490875 L316.616323,635.162164 C317.03946,634.916919 317.813307,634.956536 318.297438,635.235737 L334.584437,644.54181" id="Fill-67" fill="#FFFFFE"></path>
                <path d="M438.583196,585.540656 C439.086377,585.827387 439.141651,586.257483 438.707085,586.506485 L422.3861,595.834661 C421.957252,596.078005 421.191044,596.051595 420.691675,595.762978 L404.406904,586.461212 C403.915158,586.176368 403.861791,585.734954 404.286826,585.493496 L420.607812,576.165321 C421.044283,575.918204 421.810491,575.954046 422.298424,576.233231 L438.583196,585.540656" id="Fill-68" fill="#FFFFFE"></path>
                <path d="M419.584416,596.306295 C420.091594,596.586047 420.139805,597.011196 419.700122,597.254138 L340.605376,640.838339 C340.169549,641.07576 339.394319,641.049994 338.889069,640.772082 L322.408667,631.693037 C321.914987,631.418807 321.859063,630.984456 322.29296,630.747035 L401.387707,587.162834 C401.831247,586.919891 402.612263,586.95486 403.104014,587.22725 L419.584416,596.306295" id="Fill-69" fill="#FFFFFE"></path>
                <path d="M297.575609,641.588222 C298.083865,641.887941 298.146419,642.346452 297.704627,642.604488 L285.379423,649.829503 C284.94545,650.08357 284.159609,650.049826 283.647443,649.754077 L269.424098,641.411566 C268.913888,641.113832 268.857197,640.651352 269.29117,640.397285 L281.616375,633.174255 C282.058166,632.914234 282.838143,632.949962 283.348354,633.249681 L297.575609,641.588222" id="Fill-70" fill="#FFFFFE"></path>
                <path d="M313.576897,633.589392 C314.085133,633.887125 314.143775,634.345636 313.707865,634.601687 L301.387049,641.824713 C300.941365,642.084734 300.159463,642.050991 299.649272,641.753257 L285.42648,633.412736 C284.914334,633.113017 284.853737,632.654507 285.297466,632.394486 L297.618282,625.169475 C298.056147,624.915409 298.841959,624.951137 299.350195,625.248871 L313.576897,633.589392" id="Fill-71" fill="#FFFFFE"></path>
                <path d="M330.580021,623.585543 C331.086232,623.885173 331.144867,624.343549 330.701199,624.605478 L318.384054,631.826377 C317.94625,632.082353 317.15273,632.052588 316.646519,631.754942 L302.421799,623.414892 C301.909725,623.117246 301.858908,622.652918 302.296712,622.396942 L314.613858,615.176043 C315.05948,614.914114 315.843227,614.949832 316.355301,615.247478 L330.580021,623.585543" id="Fill-72" fill="#FFFFFE"></path>
                <path d="M347.578326,614.588294 C348.086581,614.887986 348.143271,615.344471 347.70539,615.602484 L335.386067,622.822882 C334.944275,623.084864 334.158435,623.051124 333.648225,622.755401 L319.422945,614.415623 C318.914689,614.113946 318.85409,613.653492 319.297836,613.393494 L331.619114,606.171112 C332.053086,605.915083 332.842836,605.950808 333.351091,606.248516 L347.578326,614.588294" id="Fill-73" fill="#FFFFFE"></path>
                <path d="M363.576873,605.589883 C364.085137,605.887595 364.143783,606.344086 363.707849,606.604087 L351.380488,613.826568 C350.942599,614.084584 350.160655,614.050844 349.65239,613.751148 L335.424904,605.411256 C334.914685,605.113545 334.856039,604.6511 335.291973,604.395068 L347.619334,597.172587 C348.055268,596.914571 348.839168,596.950296 349.349387,597.249992 L363.576873,605.589883" id="Fill-74" fill="#FFFFFE"></path>
                <path d="M380.574266,595.587627 C381.084346,595.885301 381.146885,596.343719 380.703252,596.603688 L368.385115,603.823273 C367.93562,604.085226 367.155842,604.05149 366.645762,603.751831 L352.426063,595.412992 C351.914029,595.115318 351.853445,594.654915 352.299032,594.394947 L364.619123,587.173377 C365.062756,586.913408 365.844487,586.951114 366.354567,587.250772 L380.574266,595.587627" id="Fill-75" fill="#FFFFFE"></path>
                <path d="M397.581548,586.584467 C398.089757,586.884139 398.142533,587.346547 397.698827,587.606527 L385.382582,594.826435 C384.940831,595.086416 384.158971,595.048709 383.650763,594.751021 L369.424825,586.411809 C368.916616,586.112137 368.852113,585.655683 369.297773,585.395703 L381.612063,578.177779 C382.055769,577.915814 382.843492,577.947567 383.357565,578.245254 L397.581548,586.584467" id="Fill-76" fill="#FFFFFE"></path>
                <path d="M414.578696,577.586469 C415.088825,577.884153 415.143551,578.34457 414.699876,578.604547 L402.382518,585.826355 C401.942752,586.082363 401.155082,586.052594 400.644953,585.754911 L386.421942,577.415797 C385.911813,577.116129 385.857087,576.653727 386.296853,576.395734 L398.614211,569.171942 C399.057887,568.915934 399.845556,568.949671 400.355685,569.247355 L414.578696,577.586469" id="Fill-77" fill="#FFFFFE"></path>
                <path d="M430.570884,567.585478 C431.082928,567.885131 431.149376,568.34354 430.701826,568.603504 L418.381507,575.824936 C417.935911,576.084899 417.158074,576.051163 416.64603,575.751511 L402.426067,567.414815 C401.915978,567.117147 401.853438,566.656754 402.295125,566.394805 L414.617399,559.173374 C415.064948,558.91341 415.840832,558.951115 416.350921,559.250767 L430.570884,567.585478" id="Fill-78" fill="#FFFFFE"></path>
                <path d="M446.578031,559.586382 C447.088192,559.886072 447.142922,560.344537 446.703128,560.604533 L434.384979,567.824866 C433.941276,568.082877 433.157465,568.053107 432.647304,567.753417 L418.425335,559.413713 C417.913219,559.116009 417.854579,558.651589 418.298283,558.393578 L430.612522,551.175229 C431.056226,550.913249 431.841991,550.950958 432.354107,551.248663 L446.578031,559.586382" id="Fill-79" fill="#FFFFFE"></path>
                <path d="M484.582721,539.163295 C485.084521,539.444378 485.144815,539.882036 484.703309,540.127276 L451.300555,558.833406 C450.864883,559.080532 450.083009,559.048462 449.581209,558.765493 L435.423841,550.836705 C434.916206,550.553736 434.852022,550.114191 435.299363,549.868951 L468.696283,531.166594 C469.137789,530.919468 469.919663,530.951538 470.425353,531.234507 L484.582721,539.163295" id="Fill-80" fill="#FFFFFE"></path>
                <path d="M285.572185,628.590521 C286.08827,628.892206 286.144962,629.33878 285.701206,629.598785 L273.371848,636.827328 C272.933957,637.081379 272.163739,637.053592 271.647653,636.753891 L257.416207,628.411891 C256.913806,628.114175 256.859069,627.655693 257.291095,627.401642 L269.622409,620.173099 C270.064209,619.913094 270.840292,619.95279 271.342694,620.246536 L285.572185,628.590521" id="Fill-81" fill="#FFFFFE"></path>
                <path d="M303.576506,616.589575 C304.090636,616.891284 304.143418,617.341862 303.697708,617.603872 L291.376179,624.825032 C290.934379,625.083073 290.164161,625.053299 289.651986,624.75159 L275.418597,616.408947 C274.916196,616.115178 274.855595,615.65666 275.293485,615.400605 L287.616969,608.175475 C288.060724,607.91545 288.844626,607.949193 289.345072,608.244947 L303.576506,616.589575" id="Fill-82" fill="#FFFFFE"></path>
                <path d="M319.572859,608.590464 C320.086967,608.892159 320.145611,609.338747 319.701875,609.600746 L307.375,616.823564 C306.937128,617.083578 306.163033,617.053805 305.648925,616.750125 L291.420044,608.409844 C290.913754,608.114103 290.855111,607.655606 291.298847,607.395593 L303.621812,600.174759 C304.069458,599.912761 304.839644,599.952457 305.343978,600.246213 L319.572859,608.590464" id="Fill-83" fill="#FFFFFE"></path>
                <path d="M335.579886,599.584764 C336.090111,599.888416 336.140938,600.342902 335.703044,600.600908 L323.37358,607.825056 C322.933731,608.083062 322.165461,608.053292 321.645461,607.751624 L307.417804,599.408129 C306.915398,599.1144 306.856751,598.655945 307.292691,598.399924 L319.6202,591.173791 C320.060049,590.915786 320.843958,590.949525 321.348319,591.245239 L335.579886,599.584764" id="Fill-84" fill="#FFFFFE"></path>
                <path d="M351.574482,589.587655 C352.09452,589.889359 352.141441,590.341916 351.695694,590.599952 L339.377048,597.82498 C338.939121,598.081032 338.161019,598.055228 337.640981,597.753524 L323.412271,589.410999 C322.909828,589.117234 322.860952,588.654753 323.296924,588.398701 L335.61948,581.175658 C336.057407,580.915637 336.843329,580.94938 337.345772,581.243145 L351.574482,589.587655" id="Fill-85" fill="#FFFFFE"></path>
                <path d="M370.575845,580.589162 C371.091929,580.890926 371.142756,581.343572 370.697046,581.603645 L358.381397,588.824142 C357.937642,589.082229 357.163516,589.054435 356.651341,588.752671 L342.417969,580.408501 C341.913614,580.112693 341.854968,579.656077 342.300677,579.396004 L354.618281,572.175507 C355.060081,571.915434 355.843982,571.949184 356.342472,572.244992 L370.575845,580.589162" id="Fill-86" fill="#FFFFFE"></path>
                <path d="M386.574748,570.586423 C387.088887,570.890105 387.143624,571.340667 386.701817,571.600683 L374.378115,578.823563 C373.934352,579.083579 373.164121,579.053806 372.649982,578.750123 L358.418296,570.409771 C357.913931,570.114028 357.855284,569.657512 358.299047,569.399481 L370.618839,562.174616 C371.068466,561.9146 371.838697,561.950328 372.346972,562.246071 L386.574748,570.586423" id="Fill-87" fill="#FFFFFE"></path>
                <path d="M403.576923,561.586512 C404.094967,561.890184 404.137974,562.342716 403.702035,562.598754 L391.378456,569.823382 C390.934698,570.083389 390.166429,570.053617 389.648385,569.75193 L375.418795,561.407881 C374.91248,561.116117 374.857743,560.657631 375.295637,560.399609 L387.621172,553.172995 C388.05711,552.916958 388.841018,552.948714 389.345378,553.244448 L403.576923,561.586512" id="Fill-88" fill="#FFFFFE"></path>
                <path d="M419.578174,554.58765 C420.092203,554.887336 420.141065,555.339843 419.699352,555.599836 L407.374394,562.824063 C406.930727,563.084056 406.162615,563.052301 405.648587,562.752614 L391.41801,554.411014 C390.917662,554.117281 390.853164,553.658821 391.296832,553.398828 L403.623744,546.174601 C404.061548,545.914608 404.84725,545.950332 405.347597,546.246049 L419.578174,554.58765" id="Fill-89" fill="#FFFFFE"></path>
                <path d="M435.576192,543.587674 C436.090318,543.889392 436.143099,544.341969 435.699348,544.602003 L423.383776,551.819419 C422.936114,552.085407 422.161993,552.053647 421.647867,551.749944 L407.416539,543.409025 C406.912187,543.115247 406.855496,542.65473 407.303158,542.392711 L419.620684,535.175295 C420.062481,534.915262 420.842467,534.949007 421.344864,535.246755 L435.576192,543.587674" id="Fill-90" fill="#FFFFFE"></path>
                <path d="M453.575056,533.587597 C454.093059,533.887299 454.139972,534.343798 453.702114,534.599834 L441.373658,541.824424 C440.933845,542.084429 440.165637,542.052673 439.651544,541.749002 L425.421141,533.406983 C424.916821,533.113236 424.85427,532.656737 425.294083,532.396731 L437.620584,525.174126 C438.062352,524.91412 438.840333,524.951831 439.344653,525.243593 L453.575056,533.587597" id="Fill-91" fill="#FFFFFE"></path>
                <path d="M261.571625,616.583525 C262.089549,616.885137 262.144273,617.345492 261.700617,617.605434 L249.385753,624.826265 C248.942098,625.082238 248.158371,625.054458 247.640447,624.748878 L233.41806,616.410892 C232.911863,616.115233 232.857139,615.654877 233.29884,615.39692 L245.615658,608.176089 C246.061268,607.916147 246.84304,607.947896 247.347283,608.245539 L261.571625,616.583525" id="Fill-92" fill="#FFFFFE"></path>
                <path d="M279.571177,608.582626 C280.087128,608.888229 280.145758,609.342664 279.702119,609.604609 L267.381842,616.827949 C266.944066,617.083941 266.162322,617.05219 265.646371,616.746587 L251.420595,608.407996 C250.914416,608.112315 250.855785,607.653911 251.295516,607.397919 L263.615793,600.174579 C264.059432,599.914618 264.841176,599.950338 265.3454,600.246019 L279.571177,608.582626" id="Fill-93" fill="#FFFFFE"></path>
                <path d="M296.56967,600.585042 C297.087642,600.888681 297.14628,601.343146 296.700629,601.605109 L284.380706,608.826946 C283.944827,609.08494 283.164937,609.051202 282.646964,608.747563 L268.41934,600.408416 C267.917004,600.110731 267.854457,599.654281 268.294245,599.398271 L280.612213,592.176435 C281.057864,591.914472 281.837755,591.950194 282.344,592.24391 L296.56967,600.585042" id="Fill-94" fill="#FFFFFE"></path>
                <path d="M312.567241,590.587587 C313.08717,590.889279 313.145809,591.345787 312.704065,591.603813 L300.387995,598.826561 C299.942342,599.084588 299.164402,599.050846 298.644473,598.751138 L284.418739,590.408954 C283.912492,590.113216 283.857762,589.656708 284.295598,589.396697 L296.619485,582.171964 C297.055366,581.915923 297.839169,581.949665 298.343461,582.247387 L312.567241,590.587587" id="Fill-95" fill="#FFFFFE"></path>
                <path d="M328.570655,580.58424 C329.086664,580.885912 329.147256,581.344374 328.699658,581.604368 L316.381907,588.824651 C315.942127,589.08663 315.160295,589.050905 314.648196,588.745264 L300.418868,580.405619 C299.914586,580.109901 299.855949,579.653423 300.295729,579.393429 L312.61348,572.177116 C313.061078,571.915137 313.840955,571.948877 314.343282,572.244595 L328.570655,580.58424" id="Fill-96" fill="#FFFFFE"></path>
                <path d="M345.567311,571.584768 C346.087156,571.888363 346.145786,572.342764 345.704112,572.602705 L333.382212,579.825497 C332.940539,580.085439 332.162725,580.051706 331.644834,579.746126 L317.421394,571.408167 C316.913274,571.112509 316.854645,570.654139 317.300227,570.396182 L329.618218,563.175375 C330.0638,562.913449 330.837705,562.95115 331.345825,563.246809 L345.567311,571.584768" id="Fill-97" fill="#FFFFFE"></path>
                <path d="M362.567797,562.58451 C363.085712,562.89008 363.148252,563.344468 362.700696,563.606385 L350.380191,570.826976 C349.940452,571.084925 349.164557,571.051193 348.644688,570.747607 L334.420602,562.409898 C333.914414,562.112265 333.855782,561.655893 334.295521,561.399928 L346.616026,554.175369 C347.063583,553.913452 347.839477,553.951152 348.343711,554.246801 L362.567797,562.58451" id="Fill-98" fill="#FFFFFE"></path>
                <path d="M379.570862,554.582481 C380.088746,554.886069 380.14542,555.344427 379.699844,555.606346 L367.385927,562.826975 C366.940351,563.084925 366.162548,563.051193 365.642709,562.747606 L351.419461,554.409853 C350.913302,554.112217 350.856628,553.657828 351.296341,553.395909 L363.618075,546.17528 C364.059743,545.917329 364.845363,545.947093 365.347613,546.244728 L379.570862,554.582481" id="Fill-99" fill="#FFFFFE"></path>
                <path d="M396.569498,544.587089 C397.087464,544.888729 397.144147,545.347142 396.706319,545.603139 L384.386541,552.824634 C383.940895,553.0846 383.162968,553.052848 382.646956,552.74724 L368.419498,544.408486 C367.915214,544.1128 367.852667,543.656371 368.302223,543.394421 L380.618092,536.172926 C381.059829,535.914944 381.839711,535.950665 382.34204,536.246351 L396.569498,544.587089" id="Fill-100" fill="#FFFFFE"></path>
                <path d="M413.569673,533.582022 C414.087641,533.887639 414.146279,534.34408 413.700631,534.608021 L401.380801,541.82772 C400.944926,542.081739 400.161132,542.053956 399.643164,541.750323 L385.417602,533.409369 C384.913315,533.115659 384.858587,532.651281 385.292507,532.399246 L397.612337,525.175579 C398.061894,524.913621 398.839824,524.951327 399.34802,525.245037 L413.569673,533.582022" id="Fill-101" fill="#FFFFFE"></path>
                <path d="M429.570651,526.585013 C430.088582,526.888629 430.143306,527.345045 429.705509,527.605003 L417.386588,534.824313 C416.942927,535.086256 416.1631,535.050537 415.64517,534.748905 L401.418703,526.410384 C400.912499,526.112722 400.857775,525.656306 401.295572,525.394363 L413.618402,518.173068 C414.058154,517.91311 414.837981,517.952798 415.346139,518.246492 L429.570651,526.585013" id="Fill-102" fill="#FFFFFE"></path>
                <path d="M228.563331,636.182659 C229.089142,636.474054 229.148444,636.909254 228.695772,637.157129 L207.572411,648.831845 C207.121716,649.081612 206.331023,649.049445 205.809166,648.759942 L191.420532,640.810918 C190.912512,640.528984 190.85321,640.089999 191.305881,639.842124 L212.427266,628.167408 C212.875984,627.917641 213.6647,627.953592 214.178651,628.233634 L228.563331,636.182659" id="Fill-103" fill="#FFFFFE"></path>
                <path d="M427.56994,503.188835 C428.089892,503.474577 428.145248,503.909813 427.698445,504.157708 L406.56823,515.837167 C406.127358,516.079385 405.332602,516.049108 404.81265,515.761474 L390.427971,507.813689 C389.908019,507.527947 389.858594,507.088927 390.297489,506.846708 L411.429682,495.165357 C411.880439,494.919354 412.665309,494.951524 413.185261,495.237265 L427.56994,503.188835" id="Fill-104" fill="#FFFFFE"></path>
                <path d="M251.582391,644.101324 C252.08729,644.385928 252.143176,644.812834 251.701871,645.05999 L227.148745,658.833328 C226.70744,659.076739 225.946238,659.052398 225.439411,658.767794 L211.410155,650.896245 C210.912964,650.617258 210.859006,650.18848 211.296456,649.941324 L235.849582,636.166114 C236.290887,635.918958 237.055944,635.952661 237.551208,636.23352 L251.582391,644.101324" id="Fill-105" fill="#FFFFFE"></path>
                <path d="M262.582987,660.922488 C263.086774,661.198921 263.142966,661.619977 262.703121,661.861626 L246.242826,670.83561 C245.801043,671.07909 245.025985,671.047968 244.522197,670.769705 L230.420017,663.080858 C229.916229,662.806256 229.854225,662.379708 230.296008,662.139889 L246.756302,653.162244 C247.198085,652.920595 247.975081,652.953547 248.480806,653.229979 L262.582987,660.922488" id="Fill-106" fill="#FFFFFE"></path>
                <path d="M217.572041,621.588075 C218.088116,621.887801 218.146761,622.342351 217.69715,622.606348 L205.387584,629.825559 C204.939928,630.085586 204.161906,630.049857 203.645831,629.752117 L189.424441,621.413401 C188.910321,621.111691 188.85754,620.655156 189.297377,620.395129 L201.612807,613.173932 C202.060463,612.91589 202.838486,612.947649 203.352606,613.251345 L217.572041,621.588075" id="Fill-107" fill="#FFFFFE"></path>
                <path d="M235.575143,611.586236 C236.087255,611.885904 236.143939,612.344335 235.704148,612.604312 L223.378287,619.826101 C222.942406,620.084093 222.164466,620.05234 221.648445,619.748704 L207.428553,611.41358 C206.914487,611.111928 206.853893,610.655481 207.295638,610.397489 L219.61759,603.175699 C220.06129,602.913738 220.837276,602.94946 221.351342,603.251112 L235.575143,611.586236" id="Fill-108" fill="#FFFFFE"></path>
                <path d="M251.577201,604.582805 C252.093178,604.884438 252.140085,605.344825 251.700332,605.604785 L239.37746,612.82413 C238.937707,613.086074 238.157877,613.050355 237.643854,612.750706 L223.425156,604.414129 C222.911133,604.112496 222.856408,603.658062 223.298116,603.400087 L235.617079,596.176773 C236.056832,595.916813 236.84448,595.94658 237.358503,596.246228 L251.577201,604.582805" id="Fill-109" fill="#FFFFFE"></path>
                <path d="M267.573395,594.586063 C268.089368,594.885695 268.144092,595.344072 267.700434,595.604018 L255.383538,602.824948 C254.937926,603.084893 254.160058,603.05116 253.644085,602.751528 L239.423562,594.415412 C238.909544,594.111811 238.858729,593.657403 239.296524,593.397457 L251.619283,586.176527 C252.062941,585.914597 252.842763,585.948331 253.354827,586.249947 L267.573395,594.586063" id="Fill-110" fill="#FFFFFE"></path>
                <path d="M283.571294,583.588559 C284.085367,583.888245 284.147915,584.34472 283.700301,584.602727 L271.380153,591.824954 C270.938403,592.086931 270.158498,592.049222 269.648335,591.749536 L255.426314,583.413908 C254.912242,583.112237 254.855557,582.655763 255.297308,582.397755 L267.617455,575.175528 C268.06507,574.913551 268.835201,574.949275 269.347319,575.252931 L283.571294,583.588559" id="Fill-111" fill="#FFFFFE"></path>
                <path d="M302.573959,575.587434 C303.08809,575.885185 303.144782,576.345706 302.701025,576.605742 L290.38728,583.823227 C289.941569,584.085248 289.161575,584.051503 288.647443,583.751767 L274.425742,575.412753 C273.909656,575.111032 273.854919,574.656466 274.30454,574.39246 L286.61633,567.174975 C287.060086,566.916924 287.840081,566.946699 288.354212,567.24842 L302.573959,575.587434" id="Fill-112" fill="#FFFFFE"></path>
                <path d="M318.570185,566.587804 C319.08424,566.891456 319.148741,567.341972 318.701142,567.603946 L306.38533,574.82411 C305.939685,575.086084 305.161762,575.05036 304.647708,574.750678 L290.424225,566.413155 C289.91017,566.111487 289.855442,565.658987 290.303041,565.395028 L302.616898,558.174864 C303.066452,557.91289 303.832648,557.950598 304.350611,558.252265 L318.570185,566.587804" id="Fill-113" fill="#FFFFFE"></path>
                <path d="M335.575494,556.587887 C336.089504,556.88554 336.144228,557.341942 335.698622,557.605861 L323.383865,564.824944 C322.940214,565.084895 322.160403,565.051161 321.644438,564.751523 L307.428038,556.417232 C306.912073,556.111642 306.855395,555.657224 307.297092,555.399258 L319.615757,548.17819 C320.063318,547.914271 320.83922,547.948005 321.357139,548.249627 L335.575494,556.587887" id="Fill-114" fill="#FFFFFE"></path>
                <path d="M350.569828,547.589543 C351.083919,547.889263 351.148424,548.343805 350.702749,548.601842 L338.384128,555.824896 C337.936498,556.084918 337.158521,556.051175 336.646385,555.751455 L322.425825,547.414872 C321.913689,547.113167 321.853093,546.656639 322.300723,546.394633 L334.619344,539.175548 C335.063065,538.913541 335.833223,538.94927 336.349268,539.252959 L350.569828,547.589543" id="Fill-115" fill="#FFFFFE"></path>
                <path d="M368.575748,539.585018 C369.089825,539.88672 369.140647,540.347211 368.706711,540.605245 L356.380592,547.828212 C355.942747,548.084261 355.162835,548.050518 354.648758,547.750802 L340.430523,539.412334 C339.910582,539.114603 339.855852,538.654111 340.297606,538.396077 L352.621771,531.171126 C353.063525,530.915077 353.841482,530.950804 354.353604,531.248536 L368.575748,539.585018" id="Fill-116" fill="#FFFFFE"></path>
                <path d="M385.575157,527.583934 C386.089189,527.885562 386.143915,528.341972 385.700244,528.601928 L373.383021,535.823141 C372.939351,536.087066 372.159508,536.049362 371.645476,535.751703 L357.422621,527.41526 C356.908589,527.111648 356.857772,526.657221 357.301442,526.395281 L369.618665,519.174068 C370.062335,518.916096 370.83827,518.947847 371.356211,519.249475 L385.575157,527.583934" id="Fill-117" fill="#FFFFFE"></path>
                <path d="M402.573236,519.588633 C403.085333,519.888262 403.145925,520.342667 402.704192,520.600626 L390.378682,527.827451 C389.938904,528.08541 389.16294,528.049693 388.648889,527.750063 L374.425493,519.415999 C373.913396,519.110416 373.856713,518.657996 374.292582,518.398052 L386.623956,511.173212 C387.061779,510.915253 387.839697,510.948986 388.351794,511.2506 L402.573236,519.588633" id="Fill-118" fill="#FFFFFE"></path>
                <path d="M468,560.908465 L475.762171,564.788286 C476.000679,564.907485 476.318689,564.988069 476.642517,564.998142 C476.983797,565.011573 477.278538,564.951135 477.480203,564.850404 L489.704217,558.741071 C489.905882,558.638661 490.020288,558.49428 489.997019,558.323037 C489.983446,558.156831 489.816684,558.000698 489.578176,557.879821 L481.816005,554 L468,560.908465" id="Fill-119" fill="#FFFFFE"></path>
                <path d="M481,552.089105 L473.234704,548.205296 C473.003917,548.089387 472.687798,548.010434 472.354224,548.002035 C472.014831,547.988596 471.720045,548.042351 471.51641,548.144822 L459.292469,554.254429 C459.090773,554.3569 458.978288,554.509766 459.0035,554.677751 C459.024834,554.844056 459.185802,555.003641 459.41271,555.117871 L467.179946,559 L481,552.089105" id="Fill-120" fill="#FFFFFE"></path>
                <path d="M417.297241,514.796775 C417.092254,514.906153 416.977934,515.062929 417.003557,515.248872 C417.029181,515.431169 417.188834,515.595237 417.427329,515.722845 L431.774448,523.382979 C432.016884,523.51241 432.33422,523.601736 432.677179,523.61632 C433.016196,523.627257 433.317763,523.568922 433.52275,523.459544 L436.763122,521.727719 L455.576592,531.774125 C455.819028,531.903556 456.144248,531.987413 456.479323,531.998351 C456.824253,532.011112 457.113994,531.949131 457.322923,531.836106 L465.695854,527.369822 C465.902812,527.254974 466.019103,527.100022 465.997421,526.915901 C465.977711,526.733604 465.818058,526.564067 465.575621,526.434636 L431.470909,508.224956 C431.232415,508.095525 430.91705,508.011668 430.576062,508.002553 C430.22719,507.986146 429.935478,508.049951 429.72852,508.161152 L417.297241,514.796775" id="Fill-121" fill="#FFFFFE"></path>
                <path d="M361.166673,651.754998 C356.130475,648.965284 355.582265,644.743663 359.944782,642.328133 L438.809815,598.631862 C443.170401,596.21448 450.789363,596.518274 455.82363,599.307989 L500.834762,624.246854 C505.869029,627.036569 506.417239,631.256337 502.056653,633.673719 L423.18969,677.368138 C418.829103,679.78552 411.210142,679.481726 406.175875,676.692011 L361.166673,651.754998" id="Fill-122" fill="#7CA69F"></path>
                <path d="M43,757.215212 C19.2528932,757.215212 0.00193632638,766.072141 0,777 L0,663.784788 C0,652.856928 19.2528932,644 43,644 C66.7490431,644 86,652.856928 86,663.784788 L86,777 C86,766.072141 66.7490431,757.215212 43,757.215212" id="Fill-123" fill="#62938A"></path>
                <polyline id="Fill-124" fill="#85BF43" points="33 719 25 715.657232 25.4697581 618 32.7560484 621.996423 33 719"></polyline>
                <polyline id="Fill-125" fill="#128A54" points="39.8235136 715.221773 32.2668819 719 32 621.914295 40 618 39.8235136 715.221773"></polyline>
                <polyline id="Fill-126" fill="#FFF6E4" points="32.9016125 622 25 617.76308 33 606 32.9016125 622"></polyline>
                <polyline id="Fill-127" fill="#E6DDBF" points="40 617.859822 32.0969566 606 32 622 40 617.859822"></polyline>
                <polyline id="Fill-128" fill="#128A54" points="31.395189 606 30 608.911894 31.3797251 610 33 608.801762 31.395189 606"></polyline>
                <polyline id="Fill-129" fill="#85BF43" points="58 729 50 725.65537 50.4715365 628 57.7561713 631.994561 58 729"></polyline>
                <polyline id="Fill-130" fill="#B5D159" points="64.8256189 725.221843 57.2669537 729 57 631.912359 65 628 64.8256189 725.221843"></polyline>
                <polyline id="Fill-131" fill="#FFF6E4" points="57.9037989 632 50 627.764009 58 616 57.9037989 632"></polyline>
                <polyline id="Fill-132" fill="#E6DDBF" points="65 627.860775 57.0948276 616 57 632 65 627.860775"></polyline>
                <polyline id="Fill-133" fill="#B5D159" points="56.395189 616 55 618.911295 56.3797251 620 58 618.798898 56.395189 616"></polyline>
                <path d="M43,677.786362 C19.2528932,677.786362 0.00193632638,668.927707 0,658 L0,771.215487 C0,782.143195 19.2528932,791 43,791 C66.7490431,791 86,782.143195 86,771.215487 L86,658 C86,668.927707 66.7490431,677.786362 43,677.786362" id="Fill-134" fill="#7CA69F"></path>
                <path d="M575.569345,807.542043 L466.953745,747.424308 C465.926817,746.858564 464.663055,746.858564 463.640009,747.424308 L385.853605,790.554838 L375.000004,787.043131 L375.000004,798.408257 C374.998063,799.541606 375.630915,800.589348 376.65396,801.153231 L493.046259,865.573598 C494.071246,866.143064 495.333067,866.141203 496.358054,865.573598 L583.346044,817.343929 C584.36909,816.778185 585,815.728581 585,814.593371 L585,803.016092 L575.569345,807.542043" id="Fill-135" fill="#D0C9BA"></path>
                <path d="M585,802.592447 C585,803.729502 584.36909,804.775369 583.346044,805.342967 L496.35806,853.575698 C495.333073,854.141434 494.071252,854.141434 493.046265,853.575698 L376.653974,789.156212 C375.630928,788.586754 374.998076,787.540887 375.000018,786.407553 C374.998076,785.839956 375.155319,785.29283 375.442626,784.81642 C375.727991,784.345594 376.14148,783.941762 376.652032,783.655172 L463.640017,735.424302 C464.663062,734.858566 465.926824,734.858566 466.953752,735.424302 L583.342162,799.845649 C584.36909,800.411385 585,801.459113 585,802.592447" id="Fill-136" fill="#FFF6E4"></path>
                <path d="M402.447533,789 L402.059396,788.790382 C401.936518,788.589957 402.010635,788.330692 402.223233,788.21485 L472.331713,750.055113 C472.540409,749.94111 472.817372,750.009145 472.940249,750.211408 C473.063127,750.411832 472.990961,750.66742 472.774462,750.7851 L402.669883,788.942999 L402.447533,789" id="Fill-137" fill="#7CA69F"></path>
                <path d="M412.446607,794 L412.058462,793.790374 C411.937532,793.589943 412.0097,793.334346 412.224253,793.216662 L482.332214,755.05558 C482.542865,754.941573 482.815932,755.007771 482.938812,755.210041 C483.063643,755.412312 482.991475,755.667908 482.776922,755.785593 L412.670912,793.944835 L412.446607,794" id="Fill-138" fill="#7CA69F"></path>
                <path d="M423.446749,800 L423.0586,799.790368 C422.937669,799.588091 423.009838,799.332487 423.220492,799.214798 L493.331194,761.054365 C493.541848,760.942193 493.816868,761.008393 493.939749,761.208831 C494.062631,761.411107 493.992413,761.666712 493.775908,761.7844 L423.667156,799.944834 L423.446749,800" id="Fill-139" fill="#7CA69F"></path>
                <path d="M434.446445,805 L434.06025,804.790379 C433.93737,804.588112 434.007587,804.33436 434.22409,804.216678 L504.332212,766.056396 C504.542864,765.940553 504.815932,766.008588 504.938812,766.210854 C505.063643,766.41312 504.991475,766.666872 504.776922,766.786393 L434.6688,804.944836 L434.446445,805" id="Fill-140" fill="#7CA69F"></path>
                <path d="M445.445944,815 L445.059752,814.790374 C444.936872,814.588104 445.00904,814.332507 445.225542,814.214823 L515.331204,776.05558 C515.541855,775.941573 515.816871,776.007771 515.93975,776.210041 C516.06263,776.410473 515.992413,776.666069 515.775911,776.783754 L445.666347,814.942997 L445.445944,815" id="Fill-141" fill="#7CA69F"></path>
                <path d="M456.446438,819 L456.060249,818.790374 C455.937371,818.588104 456.007587,818.334346 456.224087,818.216662 L526.33098,780.05558 C526.539678,779.941573 526.814691,780.007771 526.94147,780.210041 C527.062398,780.41415 526.990232,780.667908 526.777633,780.785593 L456.668789,818.946674 L456.446438,819" id="Fill-142" fill="#7CA69F"></path>
                <path d="M468.445956,826 L468.059753,825.788539 C467.936871,825.586272 468.00904,825.330679 468.225547,825.212997 L538.332975,787.054362 C538.543631,786.942196 538.816704,787.008392 538.941537,787.208821 C539.062469,787.411088 538.9903,787.66668 538.775743,787.784363 L468.666364,825.942997 L468.445956,826" id="Fill-143" fill="#7CA69F"></path>
                <path d="M479.446724,831 L479.062487,830.790372 C478.935708,830.588099 479.007874,830.334338 479.224373,830.216652 L549.331051,792.055116 C549.543649,791.941108 549.81476,792.009145 549.941539,792.211418 C550.062466,792.411852 549.9903,792.667451 549.775751,792.785137 L479.669074,830.946674 L479.446724,831" id="Fill-144" fill="#7CA69F"></path>
                <path d="M490.445522,836 L490.059329,835.790374 C489.936449,835.588104 490.010567,835.330669 490.225119,835.214823 L560.330972,797.05558 C560.543573,796.941573 560.81859,797.007771 560.94147,797.210041 C561.062399,797.408634 560.990231,797.667908 560.77763,797.783754 L490.669827,835.942997 L490.445522,836" id="Fill-145" fill="#7CA69F"></path>
                <path d="M381.329623,780.747695 C375.334859,777.438605 373.223837,769.998326 376.626218,764.16462 C380.028599,758.327152 387.670423,756.270963 393.665187,759.581935 C399.663816,762.892906 401.776772,770.331304 398.374391,776.16501 C397.829237,777.101864 396.609406,777.429199 395.64862,776.898691 C394.687834,776.370064 394.349529,775.181125 394.89275,774.246151 C397.204823,770.27863 395.77041,765.218111 391.693352,762.968155 C387.616295,760.720081 382.417998,762.115956 380.105925,766.083478 C377.793853,770.051 379.228266,775.111519 383.307257,777.359593 C384.268043,777.891982 384.602481,779.079041 384.057327,780.014014 C383.514106,780.947106 382.290409,781.276322 381.329623,780.747695" id="Fill-146" fill="#7CA69F"></path>
                <path d="M397.331257,772.747779 C391.334534,769.437069 389.225435,761.995497 392.623964,756.164133 C396.026361,750.327126 403.672086,748.2711 409.666876,751.58181 C415.665532,754.892519 417.774631,762.33033 414.376101,768.165456 C413.830945,769.102236 412.609175,769.427664 411.650318,768.897198 C410.689528,768.366732 410.349288,767.179767 410.894445,766.244868 C413.208461,762.277659 411.772108,757.219422 407.695033,754.967763 C403.617957,752.717985 398.417704,754.117512 396.107554,758.08284 C393.793538,762.051929 395.229891,767.110167 399.306966,769.359945 C400.267757,769.890411 400.606063,771.077375 400.058973,772.012275 C399.51575,772.947174 398.295913,773.276364 397.331257,772.747779" id="Fill-147" fill="#7CA69F"></path>
                <path d="M412.333345,762.745648 C406.336836,759.434996 404.223947,751.997315 407.624288,746.164172 C411.026562,740.325385 418.672014,738.273157 424.668523,741.580047 C430.663098,744.890699 432.775988,752.330261 429.375646,758.167167 C428.828576,759.100169 427.608784,759.427472 426.648028,758.898896 C425.687272,758.368439 425.350911,757.179614 425.894115,756.244731 C428.206115,752.277592 426.771747,747.217561 422.694817,744.967822 C418.615954,742.719965 413.41782,744.115706 411.107753,748.082845 C408.79382,752.051866 410.230121,757.110015 414.307051,759.357873 C415.265873,759.890211 415.602235,761.077155 415.059031,762.012038 C414.515827,762.946921 413.294101,763.277986 412.333345,762.745648" id="Fill-148" fill="#7CA69F"></path>
                <path d="M428.33084,754.747779 C422.332155,751.435188 420.226912,743.997378 423.623525,738.164133 C427.024004,732.327126 434.671699,730.2711 440.668451,733.58181 C446.665203,736.890638 448.776246,744.33033 445.373833,750.165456 C444.826741,751.102236 443.608832,751.429545 442.648037,750.897198 C441.687242,750.368613 441.347001,749.179767 441.896026,748.244868 C444.20812,744.277659 442.773694,739.215659 438.692732,736.969644 C434.615637,734.719866 429.419225,736.115631 427.105198,740.084721 C424.793104,744.051929 426.22753,749.110167 430.306559,751.359945 C431.269287,751.890411 431.601796,753.077375 431.060503,754.012275 C430.51341,754.947174 429.293568,755.276364 428.33084,754.747779" id="Fill-149" fill="#7CA69F"></path>
                <path d="M444.330135,746.745187 C438.335452,743.436461 436.224458,735.995122 439.62486,730.16394 C443.025262,724.327116 450.668917,722.271154 456.665533,725.58176 C462.664082,728.890485 464.775076,736.331825 461.376607,742.166769 C460.827594,743.101639 459.609713,743.428937 458.647007,742.896607 C457.686234,742.368039 457.349866,741.17923 457.891147,740.246241 C460.205122,736.277275 458.770728,731.219196 454.691792,728.967607 C450.614789,726.7179 445.416562,728.115503 443.104521,732.082587 C440.792479,736.051552 442.226873,741.107751 446.307742,743.359339 C447.266582,743.89167 447.602949,745.078597 447.055869,746.013467 C446.512655,746.948337 445.290908,747.277517 444.330135,746.745187" id="Fill-150" fill="#7CA69F"></path>
                <polyline id="Fill-151" fill="#E6DDBF" points="639 550 750 488.402491 750 442 639 503.593794 639 550"></polyline>
                <path d="M639,548 L515,479.190101 C515,479.190101 518.327946,473.561041 518.327946,460.18555 C518.327946,446.249743 515,433 515,433 L639,501.80805 L639,548" id="Fill-152" fill="#FFF6E4"></path>
                <path d="M512.58562,428.660133 L623.992291,366.410753 C624.971473,365.863082 626.182415,365.863082 627.161598,366.410753 L750.266317,435.194794 C753.833478,437.465851 755,439.372417 755,440.787388 L755,485.787953 C755,487.201055 754.223607,488.511352 752.952793,489.216034 L641.548054,551.471021 C640.90299,551.829904 640.199987,552 639.506641,552 C638.092909,552 636.715873,551.289711 635.958793,550.018667 C634.827035,548.127054 635.499137,545.702725 637.457503,544.609253 L746.818899,483.503812 L746.818899,445.959416 L641.969083,504.543329 C640.01458,505.63867 638.214583,504.173231 635.696133,502.767606 L512.58562,433.976088 C511.604505,433.426548 511,432.41532 511,431.31811 C511,430.222769 511.604505,429.209673 512.58562,428.660133" id="Fill-153" fill="#128A54"></path>
                <path d="M638.832774,553 C639.928862,553 640.992202,552.455461 641.577809,551.477513 C642.450442,550.021704 641.926477,548.163973 640.410447,547.324938 L515.73768,478.405534 C514.22165,477.566499 512.28953,478.072143 511.422677,479.527952 C510.550045,480.981909 511.072083,482.841492 512.588113,483.678674 L637.258954,552.592522 C637.754023,552.8722 638.297251,553 638.832774,553" id="Fill-154" fill="#128A54"></path>
                <polyline id="Fill-155" fill="#85BF43" points="737.498995 477 723 485.503062 737.498995 494 737.498995 485.501021 752 485.501021 737.498995 477"></polyline>
                <polyline id="Fill-156" fill="#7CA69F" points="708.495978 478 722.997989 485.667895 723 501 694 485.667895 708.495978 478"></polyline>
                <polyline id="Fill-157" fill="#7CA69F" points="691.548427 493 706 501.497953 691.485875 510 677 501.51842 691.548427 493"></polyline>
                <path d="M516.000005,443.335168 C516.000005,444.432594 516.607156,445.44589 517.588236,445.993668 L601.070638,492.592204 C602.049791,493.136243 603.252529,493.136243 604.231682,492.590335 L715.415623,430.326839 C716.394776,429.77906 717,428.763895 717,427.668338 C716.998073,427.12056 716.84773,426.593347 716.57403,426.135307 C716.298402,425.675398 715.903272,425.282792 715.409841,425.007969 L631.927439,378.407563 C630.948286,377.863524 629.74362,377.863524 628.768323,378.411302 L517.586309,440.672929 C516.605229,441.220707 515.998077,442.235873 516.000005,443.335168" id="Fill-158" fill="#7CA69F"></path>
                <path d="M522.604515,398 C522.604515,398 528.508678,422.817201 522,441.824664 L604.005483,487 C604.005483,487 629.078379,481.395638 603.497535,442.640618 L522.604515,398" id="Fill-159" fill="#FFF6E4"></path>
                <path d="M600.206337,444.363907 C602.577156,450.425309 602.129613,481.288961 600.094451,489.190265 C599.785801,490.387602 600.248776,491.642845 601.261535,492.380673 C602.272364,493.122238 603.643928,493.204426 604.749282,492.591748 L716.816314,430.119145 C718.232247,429.329014 722.539846,426.919397 721.943765,405.460725 C721.681413,396.012783 720.360004,384.102921 718.083709,380.283024 C716.881902,378.26567 715.253772,377.987349 714.389552,378.000425 C713.853272,378.011632 713.328567,378.151726 712.863662,378.411367 L601.585617,440.622462 C600.24106,441.373366 599.656554,442.957363 600.206337,444.363907" id="Fill-160" fill="#62938A"></path>
                <path d="M516.000018,395.319078 C515.996156,396.418182 516.602561,397.429432 517.585554,397.977114 L600.84067,444.5862 C601.821732,445.137621 603.030679,445.137621 604.013673,444.58807 L715.412533,382.335452 C716.397458,381.78777 717,380.774651 717,379.679286 C717,379.129734 716.849364,378.602613 716.577062,378.144653 C716.300896,377.686694 715.904995,377.294157 715.416395,377.023119 L632.159348,330.412164 C631.180217,329.862612 629.967408,329.862612 628.984414,330.412164 L517.585554,392.664781 C516.604492,393.212463 516.000018,394.223713 516.000018,395.319078" id="Fill-161" fill="#7CA69F"></path>
                <path d="M526,403.332538 C526,404.42994 526.603303,405.445083 527.58632,405.990979 L611.067596,452.590341 C612.050613,453.138107 613.253364,453.136238 614.232526,452.586602 L725.415608,390.32637 C726.39477,389.776734 727,388.763461 727,387.666059 C726.998073,387.118294 726.847729,386.591092 726.574026,386.133063 C726.300323,385.673164 725.903261,385.282436 725.411753,385.007619 L641.926621,338.408257 C640.947459,337.86236 639.744709,337.86423 638.767474,338.411996 L527.582465,400.674098 C526.601375,401.221864 526,402.237007 526,403.332538" id="Fill-162" fill="#B5D159"></path>
                <path d="M530.606452,358 C530.606452,358 536.508738,382.819051 530,401.822814 L612.006239,447 C612.006239,447 637.077436,441.393788 611.498287,402.638768 L530.606452,358" id="Fill-163" fill="#FFF6E4"></path>
                <path d="M609.207518,404.364092 C611.578358,410.425511 611.128882,441.289247 609.095631,449.19244 C608.785049,450.386045 609.2461,451.639423 610.258867,452.380989 C611.273563,453.122556 612.647068,453.204744 613.748573,452.590197 L725.816571,390.121159 C727.234445,389.327291 731.538224,386.917667 730.944067,365.458937 C730.679783,356.012837 729.360292,344.101075 727.083977,340.281167 C725.880231,338.26194 724.252087,337.987354 723.391717,338.00043 C722.853504,338.00977 722.330723,338.1536 721.863886,338.413242 L610.584881,400.622637 C609.24417,401.373543 608.659659,402.957544 609.207518,404.364092" id="Fill-164" fill="#85BF43"></path>
                <path d="M526,357.321006 C526,358.418264 526.602542,359.431406 527.583605,359.979101 L610.840659,406.589229 C611.823653,407.136924 613.030669,407.136924 614.011731,406.589229 L725.416395,344.333351 C726.395526,343.785656 727,342.774384 727,341.677125 C727,341.12943 726.849364,340.600428 726.57513,340.142458 C726.300896,339.686358 725.906926,339.295681 725.418326,339.020899 L642.159341,292.410771 C641.178278,291.863076 639.9674,291.863076 638.986337,292.410771 L527.587467,354.66478 C526.606405,355.212475 526,356.223747 526,357.321006" id="Fill-165" fill="#B5D159"></path>
                <polyline id="Fill-166" fill="#85BF43" points="131 332 421.996144 169.436998 422 71 131 233.270716 131 332"></polyline>
                <polyline id="Fill-167" fill="#B5D159" points="132 232.061411 116 223 116 321.64755 132 331 132 232.061411"></polyline>
                <polyline id="Fill-168" fill="#FFF6E4" points="423 70.9993153 406.841801 62 116 223.972806 132.171687 233 423 70.9993153"></polyline>
                <path d="M130.997626,223 C132.104076,223 133,221.951207 133,220.659673 L133,0 L129,0 L129,220.659673 C129,221.951207 129.892758,223 130.997626,223" id="Fill-169" fill="#128A54"></path>
                <path d="M406,71 C407.106013,71 408,69.9417192 408,68.6389327 L408,0 L404,0 L404,68.6389327 C404,69.9417192 404.897152,71 406,71" id="Fill-170" fill="#128A54"></path>
            </g>
        </g>
    </g>
</svg>