<?xml version="1.0" encoding="UTF-8"?>
<svg width="23px" height="29px" viewBox="0 0 23 29" version="1.1" xmlns="http://www.w3.org/2000/svg" xmlns:xlink="http://www.w3.org/1999/xlink">
    <!-- Generator: Sketch 51.3 (57544) - http://www.bohemiancoding.com/sketch -->
    <title>notification</title>
    <desc>Created with Sketch.</desc>
    <defs></defs>
    <g id="Page-1" stroke="none" stroke-width="1" fill="none" fill-rule="evenodd">
        <g id="Artboard" transform="translate(-1164.000000, -18.000000)" fill="#C3C2C3" fill-rule="nonzero">
            <g id="notification" transform="translate(1164.000000, 18.000000)">
                <path d="M22.9178975,24.0915641 L20.9422633,20.6571703 C20.031502,19.0719918 19.5496544,17.2575951 19.5496544,15.4083796 L19.5496544,12.3999663 C19.5496544,7.76919327 15.9376577,4 11.500014,4 C7.06237025,4 3.45037351,7.76919327 3.45037351,12.3999663 L3.45037351,15.4083796 C3.45037351,17.2575951 2.96852599,19.0719918 2.05776464,20.6571703 L0.0821304985,24.0915641 C-0.0248149635,24.276345 -0.0271328339,24.5079821 0.0740988081,24.6951818 C0.176462433,24.8835627 0.368468348,25 0.575459565,25 L22.4245145,25 C22.6315057,25 22.8235655,24.883619 22.9258752,24.6951818 C23.0271069,24.5079259 23.0248429,24.276345 22.9178975,24.0915641 Z M1.59090241,23.7999646 L3.04329079,21.2739504 C4.06212959,19.5027536 4.60030675,17.4747759 4.60030675,15.4083796 L4.60030675,12.3999663 C4.60030675,8.42917334 7.69482544,5.19997911 11.500014,5.19997911 C15.3052025,5.19997911 18.3997212,8.42917334 18.3997212,12.3999663 L18.3997212,15.4083796 C18.3997212,17.4747759 18.9378984,19.5027536 19.9556052,21.2739504 L21.4091255,23.7999646 L1.59090241,23.7999646 Z" id="Shape"></path>
                <path d="M11,0 C9.89699299,0 9,1.196 9,2.6666875 L9,5.333375 C9,5.7013125 9.22401387,6 9.50001172,6 C9.77600956,6 10.0000234,5.7013125 10.0000234,5.3333125 L10.0000234,2.6666875 C10.0000234,1.9306875 10.4480043,1.333375 11,1.333375 C11.5519957,1.333375 11.9999766,1.9306875 11.9999766,2.6666875 L11.9999766,5.333375 C11.9999766,5.7013125 12.2239904,6 12.4999883,6 C12.7759861,6 13,5.7013125 13,5.3333125 L13,2.6666875 C13,1.196 12.103007,0 11,0 Z" id="Shape"></path>
                <path d="M14.594546,24.3080415 C14.4254147,24.0105161 14.0595446,23.9130014 13.7728985,24.0842382 C13.4861962,24.2592842 13.3902727,24.6430726 13.558167,24.940598 C13.7140849,25.2169092 13.799269,25.5481897 13.799269,25.874489 C13.799269,26.9084146 12.9920157,27.7497722 12,27.7497722 C11.0079843,27.7497722 10.200731,26.9084146 10.200731,25.874489 C10.200731,25.5481897 10.2859151,25.2169092 10.441833,24.940598 C10.6085465,24.6417833 10.512623,24.2592256 10.2271015,24.0842382 C9.93803767,23.9129428 9.57334833,24.0104575 9.40545403,24.3080415 C9.14034299,24.7806129 9,25.3219251 9,25.8745476 C9.00005623,27.5985189 10.3446725,29 11.9988192,29 C13.652966,29 14.9975822,27.5985189 15,25.8745476 C15,25.3219251 14.859657,24.7806129 14.594546,24.3080415 Z" id="Shape"></path>
            </g>
        </g>
    </g>
</svg>