<?xml version="1.0" encoding="UTF-8"?>
<svg width="31px" height="29px" viewBox="0 0 31 29" version="1.1" xmlns="http://www.w3.org/2000/svg" xmlns:xlink="http://www.w3.org/1999/xlink">
    <!-- Generator: Sketch 51.3 (57544) - http://www.bohemiancoding.com/sketch -->
    <title>order</title>
    <desc>Created with Sketch.</desc>
    <defs></defs>
    <g id="Page-1" stroke="none" stroke-width="1" fill="none" fill-rule="evenodd">
        <g id="Artboard" transform="translate(-21.000000, -196.000000)" fill="#C3C2C3" fill-rule="nonzero">
            <g id="order" transform="translate(21.000000, 196.000000)">
                <path d="M30.8143478,21.1318439 C30.5670228,20.9012926 30.1656212,20.9012926 29.9184018,21.1318439 L23.6336846,26.9852327 L23.6336846,0.590148589 C23.6336846,0.26428821 23.3499261,0 23.0000594,0 C22.6501927,0 22.3664342,0.26428821 22.3664342,0.590148589 L22.3664342,26.9851344 L16.0816114,21.1316472 C15.8342864,20.9012926 15.4329904,20.9011942 15.1855598,21.1317456 C14.9381291,21.3621986 14.9381291,21.735861 15.1856654,21.966314 L22.5520864,28.8271848 C22.6757489,28.9423622 22.837957,29 23.0000594,29 C23.1621619,29 23.3243699,28.9423622 23.4480324,28.8270865 L30.8143478,21.9662157 C31.0618841,21.735861 31.0618841,21.3621986 30.8143478,21.1318439 Z" id="Shape"></path>
                <path d="M0.624554354,1 L19.3754456,1 C19.7203037,1 20,0.776083333 20,0.5 C20,0.223916667 19.7203037,0 19.3754456,0 L0.624554354,0 C0.279696258,0 0,0.223916667 0,0.5 C0,0.776083333 0.279696258,1 0.624554354,1 Z" id="Shape"></path>
                <path d="M0.624554354,8 L19.3754456,8 C19.7203037,8 20,7.77608333 20,7.5 C20,7.22391667 19.7203037,7 19.3754456,7 L0.624554354,7 C0.279696258,7 0,7.22391667 0,7.5 C0,7.77608333 0.279696258,8 0.624554354,8 Z" id="Shape"></path>
                <path d="M0.624554354,15 L19.3754456,15 C19.7203037,15 20,14.7760833 20,14.5 C20,14.2239167 19.7203037,14 19.3754456,14 L0.624554354,14 C0.279696258,14 0,14.2239167 0,14.5 C0,14.7760833 0.279696258,15 0.624554354,15 Z" id="Shape"></path>
                <path d="M13.3512612,21 L0.648738821,21 C0.290526869,21 0,21.2239167 0,21.5 C0,21.7760833 0.290526869,22 0.648738821,22 L13.3512612,22 C13.7094731,22 14,21.7760833 14,21.5 C14,21.2239167 13.7095813,21 13.3512612,21 Z" id="Shape"></path>
                <path d="M13.3512612,28 L0.648738821,28 C0.290526869,28 0,28.2239167 0,28.5 C0,28.7760833 0.290526869,29 0.648738821,29 L13.3512612,29 C13.7094731,29 14,28.7760833 14,28.5 C14,28.2239167 13.7095813,28 13.3512612,28 Z" id="Shape"></path>
            </g>
        </g>
    </g>
</svg>