<?xml version="1.0" encoding="UTF-8"?>
<svg width="74px" height="72px" viewBox="0 0 74 72" version="1.1" xmlns="http://www.w3.org/2000/svg" xmlns:xlink="http://www.w3.org/1999/xlink">
    <!-- Generator: Sketch 51.3 (57544) - http://www.bohemiancoding.com/sketch -->
    <title>rotate</title>
    <desc>Created with Sketch.</desc>
    <defs></defs>
    <g id="Page-1" stroke="none" stroke-width="1" fill="none" fill-rule="evenodd">
        <g id="Artboard" transform="translate(-337.000000, -1409.000000)" fill-rule="nonzero">
            <g id="Group-2" transform="translate(112.000000, 1370.000000)">
                <g id="rotate" transform="translate(225.000000, 39.000000)">
                    <polygon id="Shape" fill="#0D9B79" points="64.0613497 13.0963855 59.6441718 17.6024096 54 17.6024096 64.0613497 7 74 18 68.3558282 18"></polygon>
                    <polyline id="Shape" fill="#23C181" points="63.6153846 7 74 18 68.1025641 18 63.6153846 13.0963855 59 17.6024096"></polyline>
                    <polygon id="Shape" fill="#0D9B79" points="64.0613497 26.1111111 59.6441718 31 54 31 64.0613497 20 74 31 68.3558282 31"></polygon>
                    <g id="Group">
                        <polyline id="Shape" fill="#23C181" points="63.8308668 19.8076433 73.9687104 29.5757962 68.2114165 29.5757962 63.8308668 25.2343949 59.3251586 29.5757962"></polyline>
                        <path d="M54.8194503,35.6055202 C54.5691332,45.2530786 46.8093023,52.6093418 37.0469345,52.6093418 C27.159408,52.6093418 19.14926,45.0118896 19.14926,35.4849257 C19.14926,26.3197452 27.0342495,18.963482 35.7953488,18.481104 L35.7953488,0.03014862 C15.7699789,0.512526539 0,16.3104034 0,35.6055202 C0,55.2624204 16.6460888,70.9397028 37.0469345,70.9397028 C57.197463,70.9397028 73.7183932,54.9006369 73.9687104,35.6055202 L54.8194503,35.6055202 Z" id="Shape" fill="#24D89B"></path>
                    </g>
                    <path d="M0,36.122449 C0,56.0816327 16.5559322,72 37,72 C57.3186441,72 73.7491525,55.7142857 74,36.122449 L54.8101695,36.122449 C54.559322,45.9183673 46.7830508,53.3877551 37,53.3877551 C27.0915254,53.3877551 19.0644068,45.6734694 19.0644068,36" id="Shape" fill="#0D9B79"></path>
                </g>
            </g>
        </g>
    </g>
</svg>