<?xml version="1.0" encoding="UTF-8"?>
<svg width="66px" height="81px" viewBox="0 0 66 81" version="1.1" xmlns="http://www.w3.org/2000/svg" xmlns:xlink="http://www.w3.org/1999/xlink">
    <!-- Generator: Sketch 51.3 (57544) - http://www.bohemiancoding.com/sketch -->
    <title>artificial-intelligence</title>
    <desc>Created with Sketch.</desc>
    <defs></defs>
    <g id="Page-1" stroke="none" stroke-width="1" fill="none" fill-rule="evenodd">
        <g id="Artboard" transform="translate(-924.000000, -1405.000000)" fill-rule="nonzero">
            <g id="Group-3" transform="translate(701.000000, 1370.000000)">
                <g id="artificial-intelligence" transform="translate(223.000000, 35.000000)">
                    <path d="M65.4307486,38.8500473 C63.0738231,52.1135107 58.3059617,58.4520172 56.5548979,62.8080105 L56.5683242,62.8499224 C56.5683242,67.0384262 61.376617,79.6037794 63.3025279,81 L29.6315094,81 C29.4253852,78.1087098 28.5072095,75.320697 26.964711,72.9022998 L26.9108533,72.7487282 C21.0386789,74.884813 14.4930537,75.9598143 12.109123,75.1500443 C7.98770731,73.7538236 9.36161425,70.9615405 9.36161425,68.1692574 C9.36161425,65.3769742 7.98785989,66.7730367 6.61410552,65.3769742 C5.24035116,63.9807536 7.98785989,62.5846911 7.98785989,62.5846911 C5.24035116,62.5846911 5.24035116,62.5846911 5.24035116,58.3961873 C5.24569116,57.6441451 4.95626291,56.9221528 4.43812988,56.3956442 C3.92014941,55.8691355 3.21801508,55.5833436 2.49268986,55.6039042 C-4.36265566,54.2076835 5.0786253,48.1902383 5.24019859,41.6423304 C5.27513748,40.2302939 5.14392593,38.8190482 4.84946281,37.4399087 C4.64745806,36.3927432 4.37801668,35.4294016 4.1493119,34.4382241 C3.88261681,33.3719215 3.70685437,32.2833185 3.62385544,31.1852261 C3.52575192,28.8648871 3.77551157,26.5429664 4.36459038,24.302181 C7.17999345,12.5046859 15.9881024,4.29516788 27.2611576,1.16790567 C35.6704445,-1.15085179 44.6199873,0.0106620755 52.2182038,4.40698573 C63.262249,11.2620369 67.6798061,26.2149463 65.4307486,38.8500473 Z" id="Shape" fill="#D1D4D1"></path>
                    <g id="Group" transform="translate(4.000000, 7.000000)" fill="#A5A5A4">
                        <path d="M24.9862121,65.8706971 C24.3336364,65.8703798 23.7765152,65.377125 23.6677273,64.7034808 C23.5587879,64.0298365 23.93,63.3720577 24.5460606,63.1469279 C29.0209091,61.5153317 32.3765152,59.5020144 33.7557576,57.6227596 C34.0466667,57.2259663 34.5177273,57.0219375 34.9913636,57.0873029 C35.465,57.1528269 35.8692424,57.4779087 36.0519697,57.9400673 C36.234697,58.402226 36.1680303,58.9314952 35.8769697,59.3282885 C33.6813636,62.3214519 28.9816667,64.4954856 25.4263636,65.7920048 C25.285,65.8440433 25.1360606,65.8705385 24.9862121,65.8706971 Z" id="Shape"></path>
                        <path d="M10.6877273,25.9408558 C10.590303,26.2987788 10.36,26.6008558 10.0484848,26.7798173 C9.73681818,26.9587788 9.36984848,26.9995529 9.02924242,26.8932548 C8.35015152,26.6476587 7.62106061,26.5945096 6.91590909,26.7392019 C4.65742424,27.5185096 2.59560606,28.8205817 0.883787879,30.5486394 C0.870454545,30.562601 0.856969697,30.5767212 0.843636364,30.5767212 C0.643030303,29.526274 0.375454545,28.5599135 0.148333333,27.5656298 C1.91712121,25.8915144 4.03212121,24.6690865 6.32757576,23.9943317 C7.47666667,23.7620625 8.66287879,23.8344087 9.77848485,24.2043894 C10.4842424,24.4247596 10.889697,25.1989904 10.6877273,25.9408558 Z" id="Shape"></path>
                        <path d="M46.6084848,35.7148846 L42.0068182,39.5663654 C41.630303,39.8774856 41.4418182,40.375976 41.5128788,40.8727212 C41.5837879,41.3694663 41.9033333,41.7883125 42.350303,41.9704471 C42.7972727,42.1527404 43.3031818,42.070399 43.6762121,41.7546779 L48.2778788,37.9031971 C48.6543939,37.5920769 48.8428788,37.0935865 48.7718182,36.5968413 C48.7009091,36.1000962 48.3813636,35.68125 47.9343939,35.4991154 C47.4874242,35.3168221 46.9815152,35.3991635 46.6084848,35.7148846 Z" id="Shape"></path>
                        <path d="M54.7366667,19.0246587 L51.9140909,13.1284471 C51.5825758,12.4378269 50.779697,12.1585962 50.1193939,12.5041442 C49.9027273,12.6253558 49.7231818,12.808601 49.6018182,13.0323029 C49.2948485,12.5327019 48.699697,12.3201058 48.165,12.5192163 C48.1677273,12.4711442 48.1678788,12.4230721 48.165303,12.375 C48.0965152,12.0104135 47.8918182,11.6894567 47.5963636,11.4833654 C47.3009091,11.277274 46.9392424,11.2028654 46.5913636,11.2767981 L39.9037879,12.6773942 C39.23,12.8189135 38.7683333,13.4719327 38.8357576,14.1880962 C38.9031818,14.9042596 39.4778788,15.4501875 40.1651515,15.4511394 C40.2537879,15.4509808 40.3421212,15.4419375 40.4289394,15.423851 L47.0209091,14.0432452 L44.4172727,20.859649 L38.3274242,15.7581346 C38.0260606,15.5055577 37.6351515,15.4014808 37.2551515,15.4730337 C36.8751515,15.5445865 36.5431818,15.7843125 36.3445455,16.1308125 L32.3319697,23.133476 C32.289697,23.224226 32.2572727,23.3195769 32.2354545,23.4179423 L29.0954545,16.0430769 C28.9512121,15.7037163 28.6839394,15.4384471 28.3527273,15.3054952 C28.0215152,15.1725433 27.6533333,15.1830144 27.3295455,15.3346875 C27.2442424,15.3838702 27.1645455,15.4432067 27.0921212,15.5112692 C26.6880303,15.4016394 26.2583333,15.4998462 25.9345455,15.7757452 L17.9093939,22.7784087 C17.6751515,22.9894183 17.5193939,23.2800721 17.4695455,23.5994423 L14.6557576,16.3254808 C14.3783333,15.6086827 13.5984848,15.262976 12.9139394,15.5534712 C12.2293939,15.8439663 11.8992424,16.6605577 12.1766667,17.3773558 L14.9992424,24.6741635 C15.1318182,25.0187596 15.3898485,25.294024 15.7166667,25.438875 C16.0434848,25.583726 16.4118182,25.5864231 16.7404545,25.4461731 C17.1709091,25.2580096 17.4742424,24.845351 17.5375758,24.3614567 C17.5839394,24.5017067 17.6516667,24.6332308 17.7383333,24.7506346 C18.2116667,25.3449519 19.055303,25.4252308 19.6231818,24.9297548 L27.1533333,18.3589471 L29.8372727,24.6624231 C29.9810606,25.002101 30.2483333,25.2678462 30.579697,25.4007981 C30.9110606,25.53375 31.2793939,25.5229615 31.6031818,25.3708125 C31.9506061,25.2059712 32.2127273,24.8916779 32.3218182,24.5090048 C32.4274242,24.7323894 32.5893939,24.9211875 32.7904545,25.054774 C33.4237879,25.4528365 34.2454545,25.2378606 34.6256061,24.5746875 L37.8504545,18.9459663 L43.3428788,23.5467692 C43.6539394,23.8029952 44.0586364,23.8988221 44.4448485,23.8077548 C44.5151515,23.8682019 44.5915152,23.9205577 44.6725758,23.9638702 C45.0019697,24.1022163 45.3704545,24.0976154 45.6966667,23.9511779 C46.0228788,23.8047404 46.28,23.5282067 46.4112121,23.182976 L49.6619697,14.6724663 L52.3465152,20.2799279 C52.5598485,20.728601 52.9859091,21.0236971 53.4637879,21.053524 C53.9416667,21.083351 54.3981818,20.843625 54.6610606,20.4246202 C54.9237879,20.0060913 54.9527273,19.4720625 54.7366667,19.0246587 Z" id="Shape"></path>
                        <path d="M34.4493939,28.392851 C34.0436364,27.7461779 33.2140909,27.5665817 32.5966667,27.9914567 C31.9792424,28.4163317 31.8075758,29.2849615 32.2133333,29.9316346 L37.8586364,38.9228654 C38.2643939,39.5695385 39.0939394,39.7491346 39.7115152,39.3242596 C40.3289394,38.8993846 40.5006061,38.0307548 40.0948485,37.3842404 L34.4493939,28.392851 Z" id="Shape"></path>
                        <path d="M50.5713636,22.1896442 L46.3577273,23.9540337 C45.6718182,24.2411971 45.3378788,25.0560433 45.6119697,25.7744279 C45.6339394,25.818851 45.6581818,25.8620048 45.6848485,25.9035721 C45.5416667,25.9427596 45.4057576,26.0071731 45.2828788,26.0937981 C44.9951515,26.3109952 44.8016667,26.63925 44.745,27.005899 C44.6884848,27.3725481 44.7733333,27.7477644 44.9810606,28.0488894 L48.445,33.0766298 C48.7245455,33.482149 49.1893939,33.700774 49.664697,33.6501635 C50.1398485,33.5993942 50.5531818,33.2871635 50.7487879,32.830875 C50.9443939,32.3745865 50.8927273,31.8437308 50.6133333,31.4382115 L47.2616667,26.5735673 C47.2910606,26.5635721 47.3213636,26.5676971 47.3504545,26.5554808 L51.5640909,24.7910913 C52.2495455,24.5036106 52.5828788,23.6890817 52.3089394,22.9711731 C52.0348485,22.2531058 51.2572727,21.9034327 50.5713636,22.1896442 Z" id="Shape"></path>
                        <path d="M33.155,2.80436538 L38.505,4.20496154 C39.219697,4.3869375 39.9406061,3.93049038 40.1187879,3.18323077 C40.2969697,2.43597115 39.8654545,1.67839904 39.1528788,1.48722115 L33.8028788,0.086625 C33.0881818,-0.0953509615 32.3672727,0.361096154 32.1890909,1.10835577 C32.0109091,1.85577404 32.4424242,2.61334615 33.155,2.80436538 Z" id="Shape"></path>
                        <path d="M21.4398485,4.2466875 C21.5284848,4.24652885 21.6168182,4.23748558 21.7036364,4.21939904 L28.3912121,2.81880288 C28.8609091,2.72186538 29.245303,2.36933654 29.3990909,1.89464423 C29.5528788,1.41995192 29.4525758,0.895283654 29.1360606,0.519115385 C28.8195455,0.142947115 28.335303,-0.0274471154 27.8660606,0.0725048077 L21.1784848,1.47310096 C20.504697,1.61462019 20.0430303,2.26763942 20.1104545,2.98380288 C20.1781818,3.69964904 20.7527273,4.24573558 21.4398485,4.2466875 Z" id="Shape"></path>
                        <path d="M13.4148485,12.6497885 C13.8360606,12.6505817 14.2330303,12.4432212 14.4859091,12.090375 L18.0309091,7.14672115 C18.319697,6.74659615 18.3821212,6.21542308 18.194697,5.75389904 C18.0072727,5.292375 17.5984848,4.97094231 17.1230303,4.91128846 C16.6475758,4.85147596 16.1777273,5.06248558 15.8913636,5.46451442 L12.3465152,10.4080096 C12.0422727,10.8320913 11.9930303,11.3999135 12.2192424,11.8746058 C12.445303,12.3492981 12.9081818,12.6494712 13.4148485,12.6497885 Z" id="Shape"></path>
                        <path d="M29.4663636,25.2546779 L20.1037879,25.2546779 C19.3651515,25.2546779 18.7662121,25.8816779 18.7662121,26.655274 C18.7662121,27.4288702 19.365,28.0558702 20.1037879,28.0558702 L29.4663636,28.0558702 C30.205,28.0558702 30.8039394,27.4288702 30.8039394,26.655274 C30.8039394,25.8816779 30.205,25.2546779 29.4663636,25.2546779 Z" id="Shape"></path>
                        <path d="M46.6280303,10.5346154 C46.9957576,10.8541442 47.4983333,10.944101 47.9465152,10.770375 C48.394697,10.596649 48.720303,10.1858942 48.8007576,9.69263942 C48.8812121,9.19938462 48.7042424,8.69867308 48.3365152,8.37914423 L44.405,4.96126442 C44.0372727,4.64173558 43.534697,4.55177885 43.0865152,4.72550481 C42.6383333,4.89923077 42.3127273,5.30998558 42.2322727,5.80324038 C42.1518182,6.29649519 42.3287879,6.79720673 42.6965152,7.11673558 L46.6280303,10.5346154 Z" id="Shape"></path>
                        <path d="M16.0912121,12.6497885 C15.3525758,12.6497885 14.7536364,13.2767885 14.7536364,14.0503846 C14.7536364,14.8238221 15.3524242,15.4509808 16.0912121,15.4509808 L24.1163636,15.4509808 C24.855,15.4509808 25.4539394,14.8239808 25.4539394,14.0503846 C25.4539394,13.2769471 24.8551515,12.6497885 24.1163636,12.6497885 L16.0912121,12.6497885 Z" id="Shape"></path>
                        <path d="M29.4663636,12.6497885 C28.7277273,12.6497885 28.1287879,13.2767885 28.1287879,14.0503846 C28.1287879,14.8238221 28.7275758,15.4509808 29.4663636,15.4509808 L34.8163636,15.4509808 C35.555,15.4509808 36.1539394,14.8239808 36.1539394,14.0503846 C36.1539394,13.2769471 35.5551515,12.6497885 34.8163636,12.6497885 L29.4663636,12.6497885 Z" id="Shape"></path>
                        <path d="M35.0789394,28.0282644 L41.7665152,26.6276683 C42.4887879,26.4739327 42.9562121,25.7371442 42.8115152,24.9803654 C42.6668182,24.2235865 41.964697,23.7320769 41.2415152,23.8812115 L34.5539394,25.2818077 C33.8801515,25.4233269 33.4184848,26.0763462 33.4859091,26.792351 C33.5533333,27.5083558 34.1280303,28.0544423 34.8151515,28.0553942 C34.9036364,28.0555529 34.9919697,28.046351 35.0789394,28.0282644 Z" id="Shape"></path>
                        <path d="M19.3148485,7.89017308 L26.0690909,12.4283077 L26.0909091,12.4387788 L26.1028788,12.4502019 C26.1704545,12.4881202 26.2410606,12.5196923 26.3137879,12.544601 C26.3533333,12.5604663 26.3901515,12.584899 26.430303,12.5967981 C26.5472727,12.6317019 26.6681818,12.6494712 26.7898485,12.6499471 C26.9015152,12.6497885 27.0127273,12.634875 27.1207576,12.606 C27.1568182,12.5963221 27.1898485,12.576649 27.2251515,12.5639567 C27.2959091,12.5414279 27.364697,12.5127115 27.4309091,12.4782837 C27.4701515,12.4522644 27.5078788,12.4241827 27.5443939,12.3940385 C27.6006061,12.3572308 27.6540909,12.3159808 27.7043939,12.2707644 C27.7386364,12.2325288 27.7709091,12.1923894 27.8009091,12.1505048 C27.8428788,12.1051298 27.8816667,12.056899 27.9171212,12.0058125 L27.9230303,11.9899471 L27.9380303,11.970274 L31.0689394,6.50560096 L36.5457576,12.2396683 C36.8825758,12.5988606 37.3775758,12.7410144 37.8421212,12.6121875 C38.3068182,12.4833606 38.669697,12.1033846 38.7927273,11.6167933 C38.9157576,11.1302019 38.7798485,10.6120385 38.4369697,10.259351 L31.7493939,3.2566875 C31.4583333,2.95159615 31.0490909,2.80404808 30.640303,2.8565625 C30.2315152,2.90923558 29.8686364,3.15625962 29.6568182,3.52608173 L26.3534848,9.29108654 L20.7593939,5.53225962 C20.1375758,5.11626923 19.3116667,5.30601923 18.9131818,5.95634135 C18.514697,6.60666346 18.6945455,7.47196154 19.3148485,7.89017308 Z" id="Shape"></path>
                    </g>
                    <g id="Group" transform="translate(13.000000, 4.000000)" fill="#24D89B">
                        <ellipse id="Oval" cx="21.3290566" cy="4.32350831" rx="3.99743396" ry="4.22320266"></ellipse>
                        <ellipse id="Oval" cx="17.3317736" cy="16.9929568" rx="3.99743396" ry="4.22320266"></ellipse>
                        <ellipse id="Oval" cx="27.9913962" cy="16.9929568" rx="3.99743396" ry="4.22320266"></ellipse>
                        <ellipse id="Oval" cx="34.6537358" cy="28.2547774" rx="3.99743396" ry="4.22320266"></ellipse>
                        <ellipse id="Oval" cx="9.33690566" cy="7.13892359" rx="3.99743396" ry="4.22320266"></ellipse>
                        <ellipse id="Oval" cx="4.00709434" cy="16.9929568" rx="3.99743396" ry="4.22320266"></ellipse>
                        <ellipse id="Oval" cx="8.0045283" cy="29.6624053" rx="3.99743396" ry="4.22320266"></ellipse>
                        <ellipse id="Oval" cx="22.6615849" cy="29.6624053" rx="3.99743396" ry="4.22320266"></ellipse>
                        <ellipse id="Oval" cx="43.9809811" cy="25.4392027" rx="3.99743396" ry="4.22320266"></ellipse>
                        <ellipse id="Oval" cx="39.9836981" cy="14.1775415" rx="3.99743396" ry="4.22320266"></ellipse>
                        <ellipse id="Oval" cx="31.9888302" cy="7.13892359" rx="3.99743396" ry="4.22320266"></ellipse>
                        <ellipse id="Oval" cx="30.6564528" cy="43.7396412" rx="3.99743396" ry="4.22320266"></ellipse>
                        <ellipse id="Oval" cx="39.9836981" cy="38.1088106" rx="3.99743396" ry="4.22320266"></ellipse>
                    </g>
                </g>
            </g>
        </g>
    </g>
</svg>