<?xml version="1.0" encoding="UTF-8"?>
<svg width="70px" height="56px" viewBox="0 0 70 56" version="1.1" xmlns="http://www.w3.org/2000/svg" xmlns:xlink="http://www.w3.org/1999/xlink">
    <!-- Generator: Sketch 51.3 (57544) - http://www.bohemiancoding.com/sketch -->
    <title>college-graduation</title>
    <desc>Created with Sketch.</desc>
    <defs></defs>
    <g id="Page-1" stroke="none" stroke-width="1" fill="none" fill-rule="evenodd">
        <g id="Artboard" transform="translate(-1552.000000, -1418.000000)" fill="#24D89B" fill-rule="nonzero">
            <g id="Group-4" transform="translate(1322.000000, 1370.000000)">
                <g id="college-graduation" transform="translate(230.000000, 48.000000)">
                    <path d="M38.9649013,41.5393099 C37.726898,42.2738388 36.1414309,42.6784622 34.500523,42.6784622 C32.8596151,42.6784622 31.274148,42.2740074 30.0361447,41.5393099 L9.82431579,29.5470079 C9.82431579,29.5470079 8,28.4652012 8,30.9158797 C8,33.6988251 8,42.0476612 8,42.0476612 C8,42.158979 8,42.7177607 8,42.890978 C8,49.1993248 19.8645033,56 34.5,56 C49.1354967,56 61,49.1994935 61,42.890978 C61,42.7177607 61,42.158979 61,42.0476612 C61,42.0476612 61,33.1924977 61,30.2407203 C61,28.2735996 59.7030691,29.2348121 59.7030691,29.2348121 L38.9649013,41.5393099 Z" id="Shape"></path>
                    <path d="M68.8278066,19.4884575 C70.3907311,18.5402374 70.3907311,16.9885098 68.8278066,16.0401161 L37.8416172,0.711165086 C36.2786926,-0.237055029 33.7211319,-0.237055029 32.1582074,0.711165086 L1.1721934,16.0401161 C-0.390731133,16.9883362 -0.390731133,18.5400638 1.1721934,19.4884575 L32.1582074,38.2888349 C33.7211319,39.237055 36.2786926,39.237055 37.8416172,38.2888349" id="Shape"></path>
                    <path d="M66.9394431,47.7685035 C66.9394431,42.5099048 66.9394431,26.7339326 66.9394431,26.7339326 C66.9394431,26.7339326 66.9534996,25.7376368 66.3841241,26.0666289 C65.9273704,26.3305612 64.8077565,26.9785227 64.4133259,27.3347696 C63.9579271,27.745702 64.0605569,28.668146 64.0605569,28.668146 C64.0605569,28.668146 64.0605569,42.9934581 64.0605569,47.7685035 C64.0605569,48.0396451 63.83616,48.1690615 63.7291268,48.2344731 C62.6952072,48.8655542 62,50.0304782 62,51.3659647 C62,53.3729748 63.5668836,55 65.5000847,55 C67.4331164,55 69,53.3729748 69,51.3659647 C69,50.0253789 68.2997121,48.8567623 67.2591876,48.2272638 C67.1557109,48.1646656 66.9394431,48.0394692 66.9394431,47.7685035 Z" id="Shape"></path>
                </g>
            </g>
        </g>
    </g>
</svg>