<?xml version="1.0" encoding="UTF-8"?>
<svg width="82px" height="81px" viewBox="0 0 82 81" version="1.1" xmlns="http://www.w3.org/2000/svg" xmlns:xlink="http://www.w3.org/1999/xlink">
    <!-- Generator: Sketch 51.3 (57544) - http://www.bohemiancoding.com/sketch -->
    <title>member</title>
    <desc>Created with Sketch.</desc>
    <defs></defs>
    <g id="Page-1" stroke="none" stroke-width="1" fill="none" fill-rule="evenodd">
        <g id="Artboard" transform="translate(-332.000000, -1866.000000)" fill-rule="nonzero">
            <g id="Group-5" transform="translate(112.000000, 1834.000000)">
                <g id="member" transform="translate(220.000000, 32.000000)">
                    <path d="M45.25,49 L17.75,49 C16.2311406,49 15,47.8248203 15,46.375 L15,30.625 C15,29.1751797 16.2311406,28 17.75,28 L45.25,28 C46.7688594,28 48,29.1751797 48,30.625 L48,46.375 C48,47.8248203 46.7688594,49 45.25,49 Z" id="Shape" fill="#9B9B9B"></path>
                    <path d="M63,39.6888889 L63,79 L42.3234783,79 L42.3234783,61.3777778 L40.9450435,61.3777778 C38.1192522,61.3777778 35.376167,60.8491111 32.8122783,59.846 C31.2270783,59.236 30.5516453,57.406 31.4062748,55.9555556 C31.9025113,55.1015556 32.8122783,54.5864444 33.7633983,54.5864444 C34.0804383,54.5864444 34.4112626,54.6542222 34.7283026,54.7762222 C40.9726122,57.2568889 48.5264348,55.8606667 53.4198783,50.3706667 C58.4925183,44.6908889 58.8233426,36.056 54.2331548,30.0102222 C49.5740452,23.856 41.5515548,21.9446667 34.8523618,24.5608889 C33.5704174,25.0624444 32.1092766,24.6422222 31.4200592,23.4628889 L31.3649218,23.3815556 C30.5240766,21.9582222 31.1995096,20.1688889 32.7433566,19.5453333 C35.3348139,18.5286667 38.1192522,18 40.9450435,18 C44.9425044,18 48.8296905,19.0708889 52.2068557,21.05 C54.1366644,22.1615556 55.9010609,23.5848889 57.4311235,25.2793333 C57.4449078,25.3064444 57.4724765,25.32 57.4862609,25.3471111 C58.4925183,26.4586667 59.3471478,27.638 60.0639339,28.8851111 C60.0915026,28.9528889 60.1328557,29.0206667 60.1742087,29.0884444 C60.6428765,29.9017778 61.056407,30.7286667 61.4010157,31.5826667 C62.4624104,34.1717778 62.9862157,36.91 62.9862157,39.6346667 L62.9862157,39.6888889 L63,39.6888889 Z" id="Shape" fill="#24D89B"></path>
                    <g id="Group" transform="translate(48.000000, 0.000000)" fill="#0D9B79">
                        <path d="M15.1370262,2.70317337 L15.1370262,39.1960139 L15.1232653,39.1960139 L15.1232653,39.1824981 C15.1232653,36.452293 14.6003499,33.708572 13.540758,31.1135255 C13.1967347,30.2620259 12.7839067,29.437558 12.316035,28.626606 C12.2747522,28.5590267 12.2334694,28.4914474 12.2059475,28.423868 L9.63265306,19.0033088 L9.63265306,2.70317337 C9.63265306,1.21642802 10.871137,0 12.3848397,0 C13.8985423,0 15.1370262,1.21642802 15.1370262,2.70317337 Z" id="Shape"></path>
                        <path d="M12.2059475,28.423868 C11.490379,27.1804083 10.6372012,26.0045279 9.63265306,24.8962268 C9.61889213,24.869195 9.59137026,24.8556792 9.57760933,24.8286474 C8.05014577,23.1391641 6.28874636,21.7199981 4.36221574,20.611697 L0.206413994,5.35228328 C-0.192653061,3.90608553 0.688046647,2.41934017 2.14670554,2.0408959 C3.60536443,1.64893576 5.13282799,2.51395124 5.51813411,3.94663313 L9.63265306,19.0033088 L12.2059475,28.423868 Z" id="Shape"></path>
                        <path d="M24.7559184,8.00139319 L20.6413994,23.0851006 L15.1370262,43.250774 L15.1370262,22.3552438 L19.4304373,6.59574303 C19.8295044,5.16306115 21.343207,4.29804567 22.8018659,4.6900058 C24.2742857,5.08196594 25.1412245,6.55519543 24.7559184,8.00139319 Z" id="Shape"></path>
                    </g>
                    <g id="Group" fill="#FFD422">
                        <polygon id="Shape" points="8.2 39.15 5.46666667 39.15 5.46666667 36.45 2.73333333 36.45 2.73333333 39.15 0 39.15 0 41.85 2.73333333 41.85 2.73333333 44.55 5.46666667 44.55 5.46666667 41.85 8.2 41.85"></polygon>
                        <polygon id="Shape" points="79.2666667 39.15 79.2666667 36.45 76.5333333 36.45 76.5333333 39.15 73.8 39.15 73.8 41.85 76.5333333 41.85 76.5333333 44.55 79.2666667 44.55 79.2666667 41.85 82 41.85 82 39.15"></polygon>
                        <polygon id="Shape" points="13.6666667 13.5 10.9333333 13.5 10.9333333 16.2 8.2 16.2 8.2 18.9 10.9333333 18.9 10.9333333 21.6 13.6666667 21.6 13.6666667 18.9 16.4 18.9 16.4 16.2 13.6666667 16.2"></polygon>
                        <polygon id="Shape" points="13.6666667 59.4 10.9333333 59.4 10.9333333 62.1 8.2 62.1 8.2 64.8 10.9333333 64.8 10.9333333 67.5 13.6666667 67.5 13.6666667 64.8 16.4 64.8 16.4 62.1 13.6666667 62.1"></polygon>
                        <polygon id="Shape" points="73.8 59.4 71.0666667 59.4 71.0666667 62.1 68.3333333 62.1 68.3333333 64.8 71.0666667 64.8 71.0666667 67.5 73.8 67.5 73.8 64.8 76.5333333 64.8 76.5333333 62.1 73.8 62.1"></polygon>
                        <polygon id="Shape" points="38.2666667 0 35.5333333 0 35.5333333 2.7 32.8 2.7 32.8 5.4 35.5333333 5.4 35.5333333 8.1 38.2666667 8.1 38.2666667 5.4 41 5.4 41 2.7 38.2666667 2.7"></polygon>
                        <polygon id="Shape" points="35.5333333 72.9 32.8 72.9 32.8 75.6 30.0666667 75.6 30.0666667 78.3 32.8 78.3 32.8 81 35.5333333 81 35.5333333 78.3 38.2666667 78.3 38.2666667 75.6 35.5333333 75.6"></polygon>
                        <rect id="Rectangle-path" x="15.0333333" y="35.1" width="32.8" height="2.7"></rect>
                    </g>
                    <g id="Group" transform="translate(19.000000, 32.000000)" fill="#FFFFFF">
                        <rect id="Rectangle-path" x="0" y="0" width="2.88520408" height="2.64705882"></rect>
                        <polygon id="Shape" points="2.88520408 9.26470588 2.88520408 5.29411765 0 5.29411765 0 11.9117647 2.88520408 11.9117647 5.77040816 11.9117647 5.77040816 9.26470588"></polygon>
                    </g>
                </g>
            </g>
        </g>
    </g>
</svg>