<?xml version="1.0" encoding="UTF-8"?>
<svg width="49px" height="56px" viewBox="0 0 49 56" version="1.1" xmlns="http://www.w3.org/2000/svg" xmlns:xlink="http://www.w3.org/1999/xlink">
    <!-- Generator: Sketch 51.3 (57544) - http://www.bohemiancoding.com/sketch -->
    <title>support</title>
    <desc>Created with Sketch.</desc>
    <defs></defs>
    <g id="Page-1" stroke="none" stroke-width="1" fill="none" fill-rule="evenodd">
        <g id="Artboard" transform="translate(-1573.000000, -1872.000000)" fill="#24D89B" fill-rule="nonzero">
            <g id="Group-7" transform="translate(1322.000000, 1834.000000)">
                <g id="support" transform="translate(251.000000, 38.000000)">
                    <path d="M30.6183206,39 L18.3282443,39 C8.22900763,39 0,46.6326531 0,56 L49,56 C48.9465649,46.6822157 40.7175573,39 30.6183206,39 Z" id="Shape"></path>
                    <path d="M26.6533613,30.8542601 C27.5987395,30.8542601 28.4915966,31.1636771 29.1743697,31.7309417 L33.5336134,31.7309417 C35.6869748,29.5134529 37,26.573991 37,23.2735426 C37,16.4663677 31.3802521,11 24.5,11 C17.6197479,11 12,16.4663677 12,23.2735426 C12,27.8632287 14.5735294,31.8856502 18.407563,34 C18.8277311,32.1950673 20.4558824,30.8542601 22.3466387,30.8542601 L26.6533613,30.8542601 Z" id="Shape"></path>
                    <path d="M6.36995828,23.9146515 C6.52851182,25.1948791 7.16272601,26.3726885 8.06119611,27.2432432 C8.74826147,27.9089616 9.64673157,28.4210526 10.650904,28.7283073 C10.5980529,28.5234708 10.5980529,28.3186344 10.5980529,28.1650071 L10.5980529,18.230441 C10.5980529,18.0256046 10.5980529,17.8207681 10.650904,17.6159317 C9.64673157,17.8719772 8.80111266,18.3840683 8.06119611,19.1009957 C8.00834492,19.1522048 7.90264256,19.254623 7.84979138,19.3058321 L7.84979138,18.8961593 C7.84979138,17.9231863 7.95549374,16.9502134 8.11404729,16.0284495 C8.27260083,15.0554765 8.53685675,14.1337127 8.90681502,13.2631579 C9.22392211,12.341394 9.64673157,11.4708393 10.1752434,10.6514936 C10.650904,9.83214794 11.232267,9.01280228 11.8664812,8.29587482 C11.9193324,8.24466572 11.9721836,8.14224751 11.9721836,8.09103841 C12.4478442,8.14224751 12.9235049,7.9886202 13.240612,7.68136558 C16.4645341,4.55761024 20.6926287,3.02133713 24.867872,3.02133713 C29.0431154,3.02133713 33.3240612,4.55761024 36.4951321,7.68136558 C36.8650904,8.0398293 37.340751,8.14224751 37.7635605,8.09103841 C37.8164117,8.14224751 37.8164117,8.24466572 37.8692629,8.29587482 C38.5034771,9.01280228 39.0848401,9.83214794 39.5605007,10.6514936 C40.0361613,11.4708393 40.4589708,12.341394 40.8289291,13.2631579 C41.1460362,14.1849218 41.4102921,15.1066856 41.6216968,16.0796586 C41.7802503,17.0014225 41.8859527,17.9743954 41.8859527,18.9473684 L41.8859527,19.3570413 C41.8331015,19.254623 41.7273992,19.2034139 41.674548,19.1522048 C40.9874826,18.4864865 40.0890125,17.9743954 39.0848401,17.6671408 C39.1376912,17.8719772 39.1376912,18.0768137 39.1376912,18.2816501 L39.1376912,28.1650071 C39.1376912,28.3698435 39.1376912,28.5746799 39.0848401,28.7283073 C39.349096,28.6770982 39.6133519,28.5746799 39.8776078,28.4722617 L39.8776078,31.6984353 C39.8776078,32.056899 39.8247566,32.4153627 39.7719054,32.6714083 C39.7190542,32.9274538 39.6133519,33.0810811 39.5076495,33.2347084 C39.4019471,33.3371266 39.2433936,33.4395448 39.0848401,33.4907539 C38.8734353,33.541963 38.6620306,33.5931721 38.3977747,33.5931721 L38.3449235,33.5931721 L28.620306,33.5931721 C28.3031989,33.0810811 27.7746871,32.7226174 27.0876217,32.7226174 L22.7538248,32.7226174 C21.8025035,32.7226174 21.0625869,33.4907539 21.0625869,34.3613087 C21.1154381,35.2830725 21.8553547,36 22.8066759,36 L27.1404729,36 C27.7746871,36 28.3560501,35.6415363 28.6731572,35.1294452 L38.5034771,35.1294452 L38.8734353,35.1294452 C39.2433936,35.1294452 39.5605007,35.027027 39.8776078,34.9246088 C40.3004172,34.7709815 40.6175243,34.5661451 40.9346314,34.2588905 C41.1988873,33.9516358 41.4102921,33.5931721 41.5688456,33.1322902 C41.674548,32.7226174 41.7802503,32.2105263 41.7802503,31.6472262 L41.7802503,27.5504979 L41.7802503,27.3968706 C41.8331015,27.3456615 41.8859527,27.2944523 41.9388039,27.2432432 C42.837274,26.3726885 43.4714882,25.1948791 43.6300417,23.9146515 C43.6828929,23.8634424 43.7357441,23.8634424 43.7357441,23.8122333 C43.8942976,23.658606 44,23.4025605 44,23.197724 L44,18.9473684 C44,17.8719772 43.8942976,16.7965861 43.7357441,15.772404 C43.418637,14.6970128 43.1543811,13.6728307 42.7844228,12.6486486 C42.4144645,11.6244666 41.9388039,10.6514936 41.3574409,9.72972973 C40.8289291,8.80796586 40.1947149,7.9374111 39.4547983,7.11806543 C39.4019471,7.01564723 39.2962448,6.96443812 39.1905424,6.91322902 C39.2962448,6.45234708 39.1376912,5.88904694 38.767733,5.53058321 C34.9624478,1.84352774 29.9944367,0 24.9735744,0 C19.9527121,0 14.984701,1.84352774 11.1265647,5.53058321 C10.7566064,5.88904694 10.5980529,6.45234708 10.7037552,6.91322902 C10.5980529,6.96443812 10.5452017,7.01564723 10.4394993,7.11806543 C9.69958275,7.9374111 9.06536857,8.80796586 8.53685675,9.72972973 C8.00834492,10.6514936 7.53268428,11.6244666 7.10987483,12.6486486 C6.73991655,13.6728307 6.42280946,14.6970128 6.26425591,15.772404 C6.05285118,16.7965861 6,17.8719772 6,18.9473684 L6,23.197724 C6,23.4537696 6.10570236,23.658606 6.26425591,23.8122333 C6.31710709,23.8634424 6.36995828,23.8634424 6.36995828,23.9146515 Z" id="Shape"></path>
                </g>
            </g>
        </g>
    </g>
</svg>