<?xml version="1.0" encoding="UTF-8"?>
<svg width="31px" height="29px" viewBox="0 0 31 29" version="1.1" xmlns="http://www.w3.org/2000/svg" xmlns:xlink="http://www.w3.org/1999/xlink">
    <!-- Generator: Sketch 51.3 (57544) - http://www.bohemiancoding.com/sketch -->
    <title>settings</title>
    <desc>Created with Sketch.</desc>
    <defs></defs>
    <g id="Page-1" stroke="none" stroke-width="1" fill="none" fill-rule="evenodd">
        <g id="Artboard" transform="translate(-21.000000, -280.000000)" fill="#C3C2C3" fill-rule="nonzero">
            <g id="settings" transform="translate(21.000000, 280.000000)">
                <path d="M29.4040741,11.2777778 L26.5038519,11.2777778 C26.0377037,11.2777778 25.6536481,11.0377222 25.4751111,10.6349444 C25.2965741,10.2321667 25.3872778,9.80790741 25.7162222,9.49964815 L27.7668148,7.58188889 C28.0682037,7.29994444 28.2341111,6.92455556 28.2341111,6.52607407 C28.2341111,6.12705556 28.0682037,5.7522037 27.7668148,5.46972222 L25.1530556,3.02459259 C24.5502778,2.4607037 23.4991481,2.45962963 22.8952222,3.02459259 L20.8452037,4.94235185 C20.5156852,5.25007407 20.0610185,5.336 19.6316111,5.16844444 C19.2010556,5.00142593 18.9444444,4.64214815 18.9444444,4.20607407 L18.9444444,1.49296296 C18.9444444,0.669685185 18.2285741,0 17.3485185,0 L13.6514815,0 C12.7714259,0 12.0555556,0.669685185 12.0555556,1.49296296 L12.0555556,4.20607407 C12.0555556,4.64214815 11.7989444,5.00142593 11.3683889,5.16844444 C10.9389815,5.33653704 10.4843148,5.25007407 10.1547963,4.94235185 L8.10477778,3.02459259 C7.50085185,2.45962963 6.44972222,2.4607037 5.84694444,3.02459259 L3.23318519,5.46972222 C2.9317963,5.75166667 2.76588889,6.12705556 2.76588889,6.52607407 C2.76588889,6.92455556 2.9317963,7.29940741 3.23318519,7.58188889 L5.28377778,9.49964815 C5.61272222,9.80790741 5.70285185,10.2321667 5.52488889,10.6349444 C5.34692593,11.0377222 4.9622963,11.2777778 4.49614815,11.2777778 L1.59592593,11.2777778 C0.71587037,11.2777778 0,11.947463 0,12.7707407 L0,16.2287222 C0,17.052537 0.71587037,17.7222222 1.59592593,17.7222222 L4.49614815,17.7222222 C4.9622963,17.7222222 5.34635185,17.9622778 5.52488889,18.3650556 C5.70342593,18.7678333 5.61272222,19.1920926 5.28377778,19.5003519 L3.23318519,21.4181111 C2.9317963,21.7000556 2.76588889,22.0754444 2.76588889,22.4739259 C2.76588889,22.8729444 2.9317963,23.2477963 3.23318519,23.5302778 L5.84694444,25.9754074 C6.4502963,26.5398333 7.50085185,26.5409074 8.10477778,25.9754074 L10.1547963,24.0571111 C10.4843148,23.7493889 10.9372593,23.664537 11.3683889,23.8315556 C11.7989444,23.9985741 12.0555556,24.3578519 12.0555556,24.7939259 L12.0555556,27.507037 C12.0555556,28.3303148 12.7714259,29 13.6514815,29 L17.3479444,29 C18.228,29 18.9438704,28.3303148 18.9438704,27.507037 L18.9438704,24.7939259 C18.9438704,24.3578519 19.2004815,23.9985741 19.631037,23.8315556 C20.0621667,23.664 20.5151111,23.7493889 20.8446296,24.0571111 L22.8946481,25.9754074 C23.4985741,26.5403704 24.5497037,26.5392963 25.1524815,25.9754074 L27.7662407,23.5302778 C28.0676296,23.2483333 28.233537,22.8729444 28.233537,22.4739259 C28.233537,22.0754444 28.0676296,21.7005926 27.7662407,21.4181111 L25.7156481,19.5003519 C25.3867037,19.1920926 25.2965741,18.7678333 25.474537,18.3650556 C25.6525,17.9622778 26.0377037,17.7222222 26.5038519,17.7222222 L29.4040741,17.7222222 C30.2841296,17.7222222 31,17.052537 31,16.2292593 L31,12.7707407 C31,11.947463 30.2841296,11.2777778 29.4040741,11.2777778 Z M29.8518519,16.2292593 C29.8518519,16.4601852 29.6509259,16.6481481 29.4040741,16.6481481 L26.5038519,16.6481481 C25.5715556,16.6481481 24.7707222,17.1486667 24.4142222,17.9542222 C24.0571481,18.7597778 24.2448704,19.6437407 24.9044815,20.2602593 L26.9550741,22.1780185 C27.1301667,22.3418148 27.1301667,22.6076481 26.9550741,22.7709074 L24.3413148,25.216037 C24.1667963,25.3792963 23.8826296,25.3803704 23.707537,25.216037 L21.6575185,23.2977407 C20.9979074,22.6806852 20.0535556,22.5061481 19.1924444,22.8391111 C18.3313333,23.1726111 17.7962963,23.9217778 17.7962963,24.7939259 L17.7962963,27.507037 C17.7962963,27.737963 17.5953704,27.9259259 17.3485185,27.9259259 L13.6514815,27.9259259 C13.4046296,27.9259259 13.2037037,27.737963 13.2037037,27.507037 L13.2037037,24.7939259 C13.2037037,23.9217778 12.6686667,23.1726111 11.8075556,22.8391111 C11.5187963,22.7268704 11.2214259,22.6720926 10.9275,22.6720926 C10.3453889,22.6720926 9.78107407,22.8869074 9.34248148,23.2972037 L7.29246296,25.2155 C7.1167963,25.3798333 6.83262963,25.3787593 6.65868519,25.2155 L4.04492593,22.7703704 C3.86983333,22.6065741 3.86983333,22.3407407 4.04492593,22.1774815 L6.09551852,20.2597222 C6.75455556,19.6432037 6.94285185,18.7592407 6.58577778,17.9536852 C6.22927778,17.1486667 5.42844444,16.6481481 4.49614815,16.6481481 L1.59592593,16.6481481 C1.34907407,16.6481481 1.14814815,16.4601852 1.14814815,16.2292593 L1.14814815,12.7707407 C1.14814815,12.5398148 1.34907407,12.3518519 1.59592593,12.3518519 L4.49614815,12.3518519 C5.42844444,12.3518519 6.22927778,11.8513333 6.58577778,11.0457778 C6.94285185,10.2402222 6.75512963,9.35625926 6.09551852,8.73974074 L4.04492593,6.82198148 C3.86983333,6.65818519 3.86983333,6.39235185 4.04492593,6.22909259 L6.65868519,3.78396296 C6.8332037,3.62016667 7.11737037,3.62016667 7.29246296,3.78396296 L9.34248148,5.70172222 C10.0009444,6.3177037 10.9452963,6.49438889 11.8075556,6.16035185 C12.6686667,5.82738889 13.2037037,5.07822222 13.2037037,4.20607407 L13.2037037,1.49296296 C13.2037037,1.26203704 13.4046296,1.07407407 13.6514815,1.07407407 L17.3479444,1.07407407 C17.5953704,1.07407407 17.7962963,1.26203704 17.7962963,1.49296296 L17.7962963,4.20607407 C17.7962963,5.07822222 18.3313333,5.82738889 19.1924444,6.16088889 C20.0547037,6.49492593 20.9984815,6.31877778 21.6575185,5.70225926 L23.707537,3.7845 C23.8832037,3.6207037 24.1673704,3.6207037 24.3413148,3.7845 L26.9550741,6.22962963 C27.1301667,6.39342593 27.1301667,6.65925926 26.9550741,6.82251852 L24.9044815,8.74027778 C24.2454444,9.3567963 24.0571481,10.2407593 24.4142222,11.0463148 C24.7707222,11.8518704 25.5715556,12.3523889 26.5038519,12.3523889 L29.4040741,12.3523889 C29.6509259,12.3518519 29.8518519,12.5398148 29.8518519,12.7707407 L29.8518519,16.2292593 Z" id="Shape"></path>
                <path d="M15,10 C12.2427778,10 10,12.2427778 10,15 C10,17.7572222 12.2427778,20 15,20 C17.7572222,20 20,17.7572222 20,15 C20,12.2427778 17.7572222,10 15,10 Z M15,18.8888889 C12.8561111,18.8888889 11.1111111,17.1438889 11.1111111,15 C11.1111111,12.8561111 12.8561111,11.1111111 15,11.1111111 C17.1438889,11.1111111 18.8888889,12.8561111 18.8888889,15 C18.8888889,17.1438889 17.1438889,18.8888889 15,18.8888889 Z" id="Shape"></path>
            </g>
        </g>
    </g>
</svg>